# Created by Open3D 
# object name: reconstruct
# number of vertices: 992
# number of triangles: 1088
v -0.142354 -0.0662503 -1.79605
vn -0.0789582 -0.0367464 -0.9962
v -0.00233348 -0.255135 -2.9867
vn -0.000778456 -0.0851136 -0.996371
v -0.073667 -0.0810714 -2.12453
vn -0.0346284 -0.038109 -0.998673
v 0.0161507 -0.160952 -2.69971
vn 0.00597166 -0.0595115 -0.99821
v -0.133066 0.232818 -0.750164
vn -0.167031 0.292245 -0.941644
v 0.116993 -0.324218 -3.65567
vn 0.0318618 -0.0882974 -0.995584
v 0.14103 -0.33274 -3.78434
vn 0.0370979 -0.0875274 -0.995471
v 0.14103 -0.33274 -3.78434
vn 0.0370979 -0.0875274 -0.995471
v -0.0796782 0.236234 -0.900188
vn -0.0853019 0.252908 -0.963723
v 0.167677 -0.391372 -4.08853
vn 0.040791 -0.0952095 -0.994621
v 0.119272 -0.260176 -3.43336
vn 0.0346192 -0.0755171 -0.996543
v 0.048014 -0.0608794 -2.46541
vn 0.0194655 -0.0246812 -0.999506
v 0.157573 -0.348724 -3.90587
vn 0.0401504 -0.0888568 -0.995235
v 0.157573 -0.348724 -3.90587
vn 0.0401504 -0.0888568 -0.995235
v 0.0218653 0.0446531 -1.97137
vn 0.0110879 0.0226436 -0.999682
v 0.195731 -0.406447 -4.2406
vn 0.0458976 -0.0953088 -0.994389
v 0.119556 -0.178357 -3.14841
vn 0.0378854 -0.0565186 -0.997682
v 0.178356 -0.347252 -3.96955
vn 0.0447152 -0.0870589 -0.995199
v 0.166268 -0.304169 -3.75865
vn 0.0440491 -0.0805831 -0.995774
v 0.166268 -0.304169 -3.75865
vn 0.0440491 -0.0805831 -0.995774
v 0.0770132 -0.0290142 -2.4639
vn 0.0312392 -0.0117692 -0.999443
v 0.091442 -0.071873 -2.66161
vn 0.0343232 -0.0269778 -0.999047
v 0.176162 -0.324564 -3.88426
vn 0.0451491 -0.0831835 -0.995511
v 0.149347 -0.24346 -3.48501
vn 0.042711 -0.0696257 -0.996658
v 0.198492 -0.388522 -4.19384
vn 0.0470754 -0.092144 -0.994632
v 0.138373 -0.202518 -3.30812
vn 0.0417139 -0.061051 -0.997263
v 0.0126735 0.18933 -1.40072
vn 0.00896594 0.133942 -0.990949
v 0.0736729 0.0248234 -2.23728
vn 0.0329099 0.0110887 -0.999397
v 0.101535 -0.0438132 -2.57622
vn 0.0393763 -0.0169912 -0.99908
v 0.108369 -0.0413013 -2.56996
vn 0.0421247 -0.0160545 -0.998983
v 0.144669 -0.148258 -3.12242
vn 0.0462308 -0.0473775 -0.997807
v 0.0901926 0.0370715 -2.25721
vn 0.0399203 0.0164083 -0.999068
v 0.0553747 0.160963 -1.66578
vn 0.0330702 0.0961283 -0.994819
v 0.22547 -0.413484 -4.3709
vn 0.0512875 -0.0940547 -0.994245
v 0.163701 -0.186858 -3.34931
vn 0.0487423 -0.0556371 -0.997261
v 0.00314399 0.370556 -0.722782
vn 0.00387076 0.456214 -0.889862
v 0.215685 -0.349935 -4.11199
vn 0.0521926 -0.0846789 -0.99504
v 0.151966 -0.0842315 -2.90614
vn 0.0521982 -0.0289323 -0.998218
v 0.0794114 0.20952 -1.58191
vn 0.0497035 0.131138 -0.990117
v 0.240105 -0.385673 -4.33404
vn 0.055098 -0.0885021 -0.994551
v 0.0555996 0.371427 -0.887824
vn 0.0576765 0.385301 -0.920987
v 0.227838 -0.321892 -4.04133
vn 0.0561105 -0.0792735 -0.995272
v 0.102812 0.200716 -1.68707
vn 0.0604037 0.117924 -0.991184
v 0.123015 0.11576 -2.05939
vn 0.0595335 0.0560227 -0.996653
v 0.251151 -0.408988 -4.45449
vn 0.0560571 -0.0912864 -0.994246
v 0.221478 -0.28385 -3.88433
vn 0.0567748 -0.0727636 -0.995732
v 0.0914768 0.2485 -1.42334
vn 0.0631848 0.171644 -0.983131
v 0.2269 -0.303291 -3.97194
vn 0.0568678 -0.0760135 -0.995484
v 0.239394 -0.345469 -4.17988
vn 0.0569855 -0.0822359 -0.994982
v 0.222479 -0.267426 -3.82571
vn 0.0579146 -0.0696151 -0.995891
v 0.24962 -0.385149 -4.35172
vn 0.0570448 -0.088017 -0.994484
v 0.0933435 0.30315 -1.25476
vn 0.0721226 0.234231 -0.969502
v 0.0933435 0.30315 -1.25476
vn 0.0721226 0.234231 -0.969502
v 0.247951 -0.358542 -4.25311
vn 0.0579947 -0.0838616 -0.994788
v 0.251553 -0.372273 -4.315
vn 0.0579839 -0.0858102 -0.994623
v 0.212692 -0.186951 -3.47078
vn 0.0610777 -0.0536858 -0.996688
v 0.0986118 0.346587 -1.1394
vn 0.0825187 0.290025 -0.953455
v 0.25767 -0.389409 -4.38337
vn 0.0584529 -0.0883381 -0.994374
v 0.222184 -0.213815 -3.6451
vn 0.0607372 -0.0584494 -0.996441
v 0.222184 -0.213815 -3.6451
vn 0.0607372 -0.0584494 -0.996441
v 0.241001 -0.291084 -3.97432
vn 0.0603672 -0.0729123 -0.99551
v 0.262219 -0.37877 -4.38976
vn 0.059408 -0.0858137 -0.994538
v 0.267075 -0.406769 -4.49137
vn 0.059118 -0.0900399 -0.994182
v 0.267075 -0.406769 -4.49137
vn 0.059118 -0.0900399 -0.994182
v 0.253043 -0.336372 -4.18756
vn 0.0601244 -0.0799237 -0.994986
v 0.247547 -0.300785 -4.0381
vn 0.0610195 -0.0741427 -0.995379
v 0.26829 -0.400189 -4.46796
vn 0.0597013 -0.0890524 -0.994236
v 0.254522 -0.330211 -4.16131
vn 0.0608593 -0.0789573 -0.995019
v 0.254062 -0.323679 -4.14429
vn 0.0610042 -0.0777202 -0.995107
v 0.26952 -0.39517 -4.46113
vn 0.0600709 -0.0880758 -0.994301
v 0.26952 -0.39517 -4.46113
vn 0.0600709 -0.0880758 -0.994301
v 0.225993 -0.169622 -3.46467
vn 0.0650119 -0.0487956 -0.996691
v 0.267351 -0.368097 -4.3494
vn 0.0611348 -0.0841724 -0.994574
v 0.275506 -0.388654 -4.45847
vn 0.0614442 -0.0866786 -0.99434
v 0.277559 -0.398755 -4.48913
vn 0.0614702 -0.0883111 -0.994194
v 0.275941 -0.372452 -4.39791
vn 0.062398 -0.0842218 -0.994491
v 0.257454 -0.267253 -3.93714
vn 0.0651027 -0.0675805 -0.995588
v 0.286488 -0.393077 -4.50716
vn 0.063196 -0.0867084 -0.994227
v 0.286488 -0.393077 -4.50716
vn 0.063196 -0.0867084 -0.994227
v 0.212206 0.0701808 -2.49929
vn 0.0845689 0.0279687 -0.996025
v 0.246884 -0.132108 -3.40573
vn 0.0722471 -0.0386593 -0.996637
v 0.287459 -0.381474 -4.4711
vn 0.0639288 -0.0848372 -0.994342
v 0.264893 -0.223461 -3.80698
vn 0.0692943 -0.0584559 -0.995882
v 0.213436 0.11939 -2.32314
vn 0.091369 0.0511092 -0.994505
v 0.295054 -0.399312 -4.56876
vn 0.0642028 -0.0868889 -0.994147
v 0.297921 -0.400756 -4.56975
vn 0.0648084 -0.0871788 -0.994082
v 0.293154 -0.360592 -4.39527
vn 0.0663279 -0.0815863 -0.994457
v 0.296783 -0.373675 -4.46337
vn 0.0661162 -0.0832458 -0.994333
v 0.285603 -0.286169 -4.11265
vn 0.0691118 -0.0692488 -0.995203
v 0.244484 0.00407759 -2.87097
vn 0.0848502 0.00141516 -0.996393
v 0.302111 -0.404987 -4.59579
vn 0.0653428 -0.0875935 -0.994011
v 0.271841 -0.183097 -3.66597
vn 0.0738579 -0.0497466 -0.996027
v 0.299815 -0.382358 -4.5082
vn 0.0661216 -0.0843255 -0.994242
v 0.298468 -0.356263 -4.41418
vn 0.0672441 -0.0802651 -0.994503
v 0.270025 -0.134633 -3.48419
vn 0.0772111 -0.0384971 -0.996271
v 0.302126 -0.374739 -4.49062
vn 0.0668961 -0.0829739 -0.994304
v 0.294654 -0.278856 -4.11268
vn 0.0712991 -0.0674763 -0.99517
v 0.267188 -0.00758828 -3.00389
vn 0.0885973 -0.00251621 -0.996064
v 0.309585 -0.370599 -4.48597
vn 0.0686154 -0.0821384 -0.994256
v 0.314392 -0.385283 -4.57129
vn 0.068372 -0.0837889 -0.994135
v 0.316266 -0.394979 -4.59554
vn 0.0684068 -0.0854321 -0.993993
v 0.271185 0.0337934 -2.86651
vn 0.0941776 0.0117358 -0.995486
v 0.317449 -0.390601 -4.59162
vn 0.068725 -0.0845617 -0.994045
v 0.304337 -0.255128 -4.05138
vn 0.0747611 -0.0626728 -0.99523
v 0.315233 -0.347282 -4.42286
vn 0.0708762 -0.078082 -0.994424
v 0.303987 -0.224753 -3.92721
vn 0.0770492 -0.0569663 -0.995399
v 0.321597 -0.389634 -4.60405
vn 0.0694341 -0.0841234 -0.994033
v 0.321597 -0.389634 -4.60405
vn 0.0694341 -0.0841234 -0.994033
v 0.252562 0.321115 -1.71783
vn 0.143035 0.181858 -0.972866
v 0.320833 -0.374035 -4.5525
vn 0.0700647 -0.0816833 -0.994193
v 0.3219 -0.378517 -4.56297
vn 0.0701316 -0.0824666 -0.994123
v 0.3219 -0.378517 -4.56297
vn 0.0701316 -0.0824666 -0.994123
v 0.31609 -0.306713 -4.27073
vn 0.0736227 -0.0714387 -0.994724
v 0.27654 0.167558 -2.38299
vn 0.114994 0.0696758 -0.99092
v 0.32505 -0.376964 -4.56699
vn 0.0707549 -0.0820551 -0.994113
v 0.310034 -0.201649 -3.86089
vn 0.0799352 -0.0519907 -0.995443
v 0.319804 -0.298066 -4.26088
vn 0.0746639 -0.0695889 -0.994778
v 0.286871 0.0854521 -2.68877
vn 0.106037 0.031586 -0.99386
v 0.286871 0.0854521 -2.68877
vn 0.106037 0.031586 -0.99386
v 0.286871 0.0854521 -2.68877
vn 0.106037 0.031586 -0.99386
v 0.326051 -0.36603 -4.52602
vn 0.0716204 -0.0804022 -0.994186
v 0.318584 -0.270718 -4.15262
vn 0.076333 -0.0648643 -0.99497
v 0.329441 -0.363256 -4.53223
vn 0.0722667 -0.0796845 -0.994197
v 0.32443 -0.28674 -4.23979
vn 0.0761243 -0.0672808 -0.994826
v 0.325327 -0.299385 -4.27774
vn 0.0756481 -0.0696158 -0.994701
v 0.330683 -0.370882 -4.55183
vn 0.0722194 -0.0809987 -0.994094
v 0.317688 -0.191788 -3.84347
vn 0.0822741 -0.0496688 -0.995371
v 0.331827 -0.378603 -4.58599
vn 0.0719246 -0.0820635 -0.994028
v 0.329969 -0.32782 -4.3928
vn 0.0746982 -0.0742118 -0.994441
v 0.329969 -0.32782 -4.3928
vn 0.0746982 -0.0742118 -0.994441
v 0.300869 0.0723157 -2.79367
vn 0.107042 0.0257282 -0.993922
v 0.326382 -0.258543 -4.1164
vn 0.0788856 -0.0624891 -0.994923
v 0.337483 -0.391848 -4.64685
vn 0.0721806 -0.0838082 -0.993864
v 0.29835 0.207544 -2.26825
vn 0.129876 0.0903472 -0.987405
v 0.29835 0.207544 -2.26825
vn 0.129876 0.0903472 -0.987405
v 0.298578 0.206778 -2.27431
vn 0.12964 0.0897814 -0.987488
v 0.298578 0.206778 -2.27431
vn 0.12964 0.0897814 -0.987488
v 0.3367 -0.327569 -4.42191
vn 0.0757175 -0.0736641 -0.994405
v 0.340961 -0.399301 -4.69155
vn 0.0722246 -0.0845825 -0.993795
v 0.339037 -0.358368 -4.53193
vn 0.0743713 -0.0786119 -0.994127
v 0.342228 -0.398175 -4.68505
vn 0.0725925 -0.0844598 -0.993779
v 0.337917 -0.316924 -4.38062
vn 0.0767113 -0.0719457 -0.994454
v 0.340113 -0.315286 -4.38595
vn 0.0771161 -0.0714869 -0.994456
v 0.290511 0.568215 -0.847664
vn 0.273799 0.535528 -0.798901
v 0.342906 -0.317252 -4.3969
vn 0.0775515 -0.0717498 -0.994403
v 0.326536 0.00615354 -3.1108
vn 0.104395 0.00196731 -0.994534
v 0.328751 -0.00403481 -3.1518
vn 0.103743 -0.00127325 -0.994603
v 0.324434 0.0870125 -2.8075
vn 0.114741 0.0307734 -0.992919
v 0.32907 0.0308408 -3.04564
vn 0.107416 0.0100671 -0.994163
v 0.326395 0.103981 -2.7388
vn 0.118253 0.0376723 -0.992269
v 0.326395 0.103981 -2.7388
vn 0.118253 0.0376723 -0.992269
v 0.349082 -0.358734 -4.57534
vn 0.0758437 -0.0779409 -0.994069
v 0.347618 -0.320559 -4.42398
vn 0.0781308 -0.0720489 -0.994336
v 0.348075 -0.328002 -4.4551
vn 0.0776831 -0.0732032 -0.994287
v 0.349685 -0.352851 -4.547
vn 0.0764498 -0.077142 -0.994085
v 0.344788 -0.219545 -4.02388
vn 0.0852468 -0.0542812 -0.99488
v 0.340118 -0.0896351 -3.52651
vn 0.09597 -0.025292 -0.995063
v 0.341418 -0.0980475 -3.55435
vn 0.0955801 -0.0274485 -0.995043
v 0.351716 -0.356055 -4.56568
vn 0.076576 -0.0775208 -0.994046
v 0.333145 0.124617 -2.67492
vn 0.123457 0.0461807 -0.991275
v 0.333145 0.124617 -2.67492
vn 0.123457 0.0461807 -0.991275
v 0.352127 -0.353686 -4.55858
vn 0.076786 -0.0771259 -0.99406
v 0.324013 0.418574 -1.53363
vn 0.199711 0.257995 -0.94528
v 0.352508 -0.339636 -4.50961
vn 0.0777117 -0.0748741 -0.99416
v 0.351526 -0.300387 -4.35936
vn 0.0801873 -0.0685218 -0.994422
v 0.351526 -0.300387 -4.35936
vn 0.0801873 -0.0685218 -0.994422
v 0.347767 -0.182501 -3.90696
vn 0.088566 -0.0464776 -0.994985
v 0.354245 -0.338431 -4.51518
vn 0.0779986 -0.0745167 -0.994165
v 0.335767 0.203119 -2.36744
vn 0.139918 0.0846422 -0.986539
v 0.354009 -0.326785 -4.46922
vn 0.0787544 -0.0726979 -0.99424
v 0.355198 -0.360721 -4.59794
vn 0.0767875 -0.0779816 -0.993993
v 0.353859 -0.314533 -4.42327
vn 0.0795451 -0.0707049 -0.994321
v 0.353693 -0.268785 -4.24315
vn 0.0829032 -0.0630013 -0.994564
v 0.341519 0.129553 -2.69402
vn 0.12562 0.0476531 -0.990933
v 0.358366 -0.397002 -4.73643
vn 0.0751839 -0.0832896 -0.993685
v 0.357127 -0.341398 -4.53195
vn 0.0783379 -0.0748876 -0.99411
v 0.356166 -0.304762 -4.38168
vn 0.0808241 -0.069159 -0.994326
v 0.346741 0.0377324 -3.07005
vn 0.112221 0.0122119 -0.993608
v 0.358343 -0.379975 -4.66927
vn 0.0762694 -0.0808734 -0.993802
v 0.338237 0.38534 -1.68865
vn 0.19166 0.218351 -0.956864
v 0.339725 0.341571 -1.8651
vn 0.17636 0.177318 -0.968223
v 0.344865 0.167093 -2.55763
vn 0.133349 0.0646098 -0.988961
v 0.344865 0.167093 -2.55763
vn 0.133349 0.0646098 -0.988961
v 0.359236 -0.374061 -4.65206
vn 0.0767454 -0.0799126 -0.993843
v 0.360291 -0.372875 -4.65376
vn 0.0769431 -0.0796306 -0.99385
v 0.360518 -0.363189 -4.61551
vn 0.0776344 -0.0782097 -0.99391
v 0.361478 -0.391853 -4.73599
vn 0.0758467 -0.0822201 -0.993724
v 0.360904 -0.339171 -4.52599
vn 0.0792673 -0.0744938 -0.994066
v 0.360904 -0.339171 -4.52599
vn 0.0792673 -0.0744938 -0.994066
v 0.360766 -0.329742 -4.49346
vn 0.0798162 -0.0729524 -0.994136
v 0.360766 -0.329742 -4.49346
vn 0.0798162 -0.0729524 -0.994136
v 0.362164 -0.37454 -4.6614
vn 0.0772134 -0.0798521 -0.993812
v 0.36259 -0.384094 -4.70145
vn 0.0766409 -0.081186 -0.993748
v 0.360554 -0.258404 -4.22349
vn 0.0849017 -0.0608479 -0.99453
v 0.353861 0.118902 -2.75583
vn 0.127242 0.042755 -0.99095
v 0.362632 -0.336378 -4.52019
vn 0.0797489 -0.0739752 -0.994066
v 0.362089 -0.282315 -4.31991
vn 0.0833492 -0.0649859 -0.994399
v 0.36399 -0.384869 -4.70601
vn 0.0768602 -0.0812691 -0.993724
v 0.364635 -0.379295 -4.68418
vn 0.0773574 -0.0804675 -0.993751
v 0.364404 -0.358423 -4.61833
vn 0.078425 -0.0771376 -0.993931
v 0.364282 -0.347096 -4.58207
vn 0.0790266 -0.0752982 -0.994025
v 0.357578 0.12004 -2.78492
vn 0.127236 0.0427137 -0.990952
v 0.36367 -0.259082 -4.23639
vn 0.0853715 -0.0608194 -0.994491
v 0.365639 -0.367104 -4.64023
vn 0.078311 -0.0786247 -0.993824
v 0.36458 -0.243971 -4.16197
vn 0.0871155 -0.0582963 -0.994491
v 0.364751 -0.214056 -4.06292
vn 0.0892931 -0.0524022 -0.994626
v 0.367614 -0.393034 -4.75052
vn 0.0768921 -0.082209 -0.993644
v 0.367614 -0.393034 -4.75052
vn 0.0768921 -0.082209 -0.993644
v 0.366418 -0.149843 -3.82456
vn 0.0952976 -0.0389709 -0.994686
v 0.366418 -0.149843 -3.82456
vn 0.0952976 -0.0389709 -0.994686
v 0.368357 -0.346275 -4.58723
vn 0.0798172 -0.0750324 -0.993982
v 0.367988 -0.29146 -4.35623
vn 0.0839877 -0.0665213 -0.994244
v 0.367594 -0.234681 -4.16618
vn 0.0877533 -0.0560238 -0.994566
v 0.36876 -0.313836 -4.46092
vn 0.0821819 -0.0699415 -0.99416
v 0.369202 -0.2864 -4.34938
vn 0.0844004 -0.0654716 -0.994279
v 0.369501 -0.289516 -4.36666
vn 0.084134 -0.0659218 -0.994271
v 0.37018 -0.368703 -4.66873
vn 0.0787973 -0.0784829 -0.993796
v 0.368625 0.0283646 -3.17373
vn 0.115369 0.00887727 -0.993283
v 0.37072 -0.328711 -4.51306
vn 0.0816531 -0.0724005 -0.994028
v 0.366282 0.564785 -1.08457
vn 0.286943 0.442449 -0.849649
v 0.371173 -0.250533 -4.22881
vn 0.0872843 -0.0589149 -0.99444
v 0.370619 0.278424 -2.16663
vn 0.167273 0.125662 -0.97787
v 0.371358 0.169621 -2.61863
vn 0.140121 0.0640015 -0.988064
v 0.37278 -0.379977 -4.72495
vn 0.0784 -0.0799136 -0.993714
v 0.373101 -0.299716 -4.40772
vn 0.0841525 -0.0676007 -0.994157
v 0.373062 -0.38153 -4.71607
vn 0.0786028 -0.080387 -0.99366
v 0.373163 -0.0356495 -3.40909
vn 0.108805 -0.0103945 -0.994009
v 0.373321 -0.171212 -3.90869
vn 0.0949875 -0.0435632 -0.994525
v 0.373373 -0.297586 -4.40993
vn 0.0841745 -0.0670889 -0.99419
v 0.373712 -0.384602 -4.73392
vn 0.0784418 -0.0807276 -0.993645
v 0.374597 -0.131327 -3.77998
vn 0.0985581 -0.0345526 -0.994531
v 0.374047 -0.394426 -4.77192
vn 0.0778814 -0.0821246 -0.993574
v 0.375231 -0.186217 -3.98954
vn 0.0935395 -0.0464211 -0.994533
v 0.377166 0.225706 -2.39429
vn 0.154938 0.0927189 -0.983564
v 0.375745 -0.381507 -4.72743
vn 0.0789768 -0.0801879 -0.993646
v 0.3771 -0.219258 -4.12712
vn 0.090865 -0.0528317 -0.994461
v 0.377786 -0.142095 -3.83059
vn 0.0980803 -0.0368906 -0.994495
v 0.376458 -0.382908 -4.73124
vn 0.0790611 -0.0804157 -0.993621
v 0.380765 0.354461 -1.93154
vn 0.190348 0.177198 -0.965592
v 0.379097 -0.0396546 -3.41852
vn 0.110212 -0.0115285 -0.993841
v 0.376617 -0.394174 -4.77849
vn 0.0783072 -0.0819576 -0.993555
v 0.379291 -0.0375864 -3.42818
vn 0.109962 -0.0108968 -0.993876
v 0.378376 -0.267369 -4.32036
vn 0.0870803 -0.0615329 -0.994299
v 0.380569 -0.0186432 -3.35689
vn 0.112646 -0.00551829 -0.99362
v 0.380569 -0.0186432 -3.35689
vn 0.112646 -0.00551829 -0.99362
v 0.377913 -0.379376 -4.73235
vn 0.0793509 -0.0796581 -0.993659
v 0.379108 -0.313849 -4.48595
vn 0.0840059 -0.0695452 -0.994035
v 0.379108 -0.313849 -4.48595
vn 0.0840059 -0.0695452 -0.994035
v 0.379989 -0.234834 -4.18816
vn 0.0902176 -0.0557547 -0.99436
v 0.379408 -0.35244 -4.62513
vn 0.0815224 -0.0757281 -0.99379
v 0.379508 -0.391032 -4.77605
vn 0.0789484 -0.0813459 -0.993554
v 0.380332 -0.38504 -4.75033
vn 0.0795498 -0.0805345 -0.993572
v 0.384618 -0.111213 -3.71402
vn 0.102962 -0.0297717 -0.99424
v 0.38326 -0.212464 -4.09409
vn 0.0930813 -0.0516005 -0.99432
v 0.393468 0.61793 -0.981091
vn 0.321352 0.504673 -0.801273
v 0.382448 -0.314371 -4.49257
vn 0.0846168 -0.0695546 -0.993983
v 0.381149 -0.395329 -4.79767
vn 0.0789292 -0.0818657 -0.993513
v 0.383317 -0.319457 -4.5177
vn 0.084335 -0.0702847 -0.993956
v 0.395725 0.433018 -1.66654
vn 0.223983 0.24509 -0.943272
v 0.383823 -0.352383 -4.63538
vn 0.0822848 -0.0755446 -0.993742
v 0.391302 -0.00674367 -3.32666
vn 0.11682 -0.00201327 -0.993151
v 0.387179 -0.242476 -4.2386
vn 0.09082 -0.0568772 -0.994242
v 0.385325 -0.335254 -4.5746
vn 0.0837113 -0.0728335 -0.993825
v 0.38551 -0.359324 -4.66589
vn 0.0821009 -0.0765242 -0.993682
v 0.386462 -0.322625 -4.53785
vn 0.0846448 -0.0706628 -0.993902
v 0.388265 -0.266024 -4.33709
vn 0.0889994 -0.060979 -0.994163
v 0.386471 -0.34545 -4.63141
vn 0.0829277 -0.0741257 -0.993795
v 0.387434 -0.359993 -4.67387
vn 0.082368 -0.076534 -0.993659
v 0.392136 -0.1949 -4.04683
vn 0.0963371 -0.0478816 -0.994196
v 0.388992 -0.315095 -4.50768
vn 0.0857681 -0.0694746 -0.99389
v 0.388792 -0.352006 -4.65195
vn 0.08305 -0.0751921 -0.993705
v 0.389466 -0.360543 -4.68077
vn 0.0826759 -0.0765361 -0.993633
v 0.39105 -0.308077 -4.49346
vn 0.0864972 -0.0681443 -0.993919
v 0.391249 -0.309185 -4.48988
vn 0.0866076 -0.0684416 -0.993889
v 0.394068 -0.219948 -4.16536
vn 0.0940557 -0.0524969 -0.994182
v 0.393615 -0.237103 -4.22326
vn 0.0926548 -0.0558128 -0.994133
v 0.393022 -0.282776 -4.39986
vn 0.0887902 -0.0638838 -0.994
v 0.394831 -0.231453 -4.20027
vn 0.0934483 -0.0547801 -0.994116
v 0.393709 -0.268709 -4.35264
vn 0.0899155 -0.0613679 -0.994057
v 0.391409 -0.363167 -4.69893
vn 0.0827648 -0.0767929 -0.993606
v 0.391288 -0.370272 -4.72546
vn 0.0822714 -0.0778526 -0.993564
v 0.39242 -0.339797 -4.61367
vn 0.0845226 -0.0731883 -0.99373
v 0.415901 0.364613 -1.97434
vn 0.202844 0.177829 -0.962928
v 0.396585 -0.236799 -4.23445
vn 0.0931044 -0.0555923 -0.994103
v 0.395096 -0.280511 -4.39926
vn 0.0892698 -0.06338 -0.993989
v 0.392488 -0.356384 -4.68375
vn 0.0832663 -0.0756066 -0.993655
v 0.397971 -0.208129 -4.1223
vn 0.0959732 -0.0501917 -0.994118
v 0.395429 -0.282987 -4.40491
vn 0.0892279 -0.0638557 -0.993962
v 0.403243 -0.0633237 -3.57855
vn 0.111958 -0.0175814 -0.993557
v 0.391627 -0.394517 -4.818
vn 0.0807484 -0.0813443 -0.99341
v 0.39177 -0.392812 -4.81457
vn 0.0808368 -0.0810519 -0.993426
v 0.402289 -0.109762 -3.75429
vn 0.1065 -0.0290577 -0.993888
v 0.39945 -0.199006 -4.09127
vn 0.0970591 -0.0483548 -0.994103
v 0.395073 -0.318721 -4.54172
vn 0.0864493 -0.0697422 -0.993812
v 0.394457 -0.334877 -4.60734
vn 0.08508 -0.0722294 -0.993753
v 0.406284 -0.0419839 -3.51152
vn 0.114926 -0.011876 -0.993303
v 0.395449 -0.337147 -4.60857
vn 0.085267 -0.0726958 -0.993703
v 0.395449 -0.337147 -4.60857
vn 0.085267 -0.0726958 -0.993703
v 0.397536 -0.286596 -4.42449
vn 0.0893028 -0.0643811 -0.993922
v 0.394704 -0.364865 -4.70843
vn 0.0832883 -0.0769918 -0.993547
v 0.40509 -0.0998877 -3.72998
vn 0.107931 -0.0266137 -0.993802
v 0.409622 0.00500782 -3.32686
vn 0.122203 0.00149398 -0.992504
v 0.409622 0.00500782 -3.32686
vn 0.122203 0.00149398 -0.992504
v 0.409678 0.00447439 -3.33036
vn 0.122093 0.00133346 -0.992518
v 0.400307 -0.296486 -4.46768
vn 0.0890489 -0.0659537 -0.993841
v 0.396731 -0.381206 -4.77969
vn 0.082459 -0.0792321 -0.99344
v 0.396731 -0.381206 -4.77969
vn 0.082459 -0.0792321 -0.99344
v 0.409574 -0.111 -3.77912
vn 0.107701 -0.0291883 -0.993755
v 0.404981 -0.23688 -4.24767
vn 0.0947656 -0.0554299 -0.993955
v 0.398587 -0.38381 -4.792
vn 0.0826285 -0.0795652 -0.993399
v 0.399872 -0.355234 -4.70056
vn 0.0845235 -0.0750882 -0.993588
v 0.399114 -0.37693 -4.77748
vn 0.0829944 -0.0783815 -0.993463
v 0.401126 -0.350935 -4.67527
vn 0.0852453 -0.0745789 -0.993565
v 0.400801 -0.357469 -4.70217
vn 0.0846869 -0.0755311 -0.993541
v 0.411692 -0.143454 -3.91071
vn 0.104625 -0.0364565 -0.993843
v 0.401469 -0.3459 -4.6648
vn 0.0855135 -0.0736773 -0.993609
v 0.426662 0.152205 -2.82369
vn 0.149193 0.0532223 -0.987375
v 0.428741 0.180284 -2.70852
vn 0.15601 0.0656015 -0.985575
v 0.418093 -0.0337283 -3.51331
vn 0.118163 -0.00953246 -0.992948
v 0.412318 -0.153724 -3.95044
vn 0.103731 -0.0386738 -0.993853
v 0.418063 -0.0421985 -3.53533
vn 0.117426 -0.0118528 -0.993011
v 0.427757 0.137569 -2.87283
vn 0.147109 0.0473108 -0.987988
v 0.407776 -0.250478 -4.31869
vn 0.0938469 -0.0576457 -0.993916
v 0.406336 -0.281803 -4.42161
vn 0.0913285 -0.0633383 -0.993804
v 0.404384 -0.3215 -4.57594
vn 0.0878138 -0.0698152 -0.993687
v 0.404476 -0.324426 -4.58639
vn 0.0876323 -0.0702888 -0.99367
v 0.403275 -0.348049 -4.67186
vn 0.0857643 -0.0740195 -0.993562
v 0.404587 -0.327042 -4.59009
vn 0.087583 -0.0707965 -0.993638
v 0.408391 -0.259298 -4.34348
vn 0.0934461 -0.0593315 -0.993855
v 0.405001 -0.324575 -4.58684
vn 0.0877363 -0.0703134 -0.993659
v 0.403798 -0.359676 -4.71761
vn 0.085037 -0.0757452 -0.993495
v 0.420556 -0.0664838 -3.63598
vn 0.11488 -0.0181609 -0.993213
v 0.404943 -0.350468 -4.68245
vn 0.0859209 -0.0743624 -0.993523
v 0.416275 -0.172461 -4.02657
vn 0.102741 -0.042565 -0.993797
v 0.431967 0.0901468 -3.06781
vn 0.139372 0.0290854 -0.989813
v 0.405491 -0.381434 -4.80508
vn 0.0838273 -0.0788541 -0.993355
v 0.430072 0.0163237 -3.33683
vn 0.127828 0.00485178 -0.991785
v 0.408717 -0.333412 -4.6278
vn 0.0877497 -0.071582 -0.993567
v 0.407483 -0.359267 -4.72233
vn 0.0857232 -0.0755799 -0.993448
v 0.409855 -0.319303 -4.58919
vn 0.0887417 -0.0691355 -0.993652
v 0.409686 -0.331041 -4.63005
vn 0.0879171 -0.0710402 -0.993591
v 0.425628 -0.0919321 -3.74309
vn 0.112949 -0.024396 -0.993301
v 0.429242 -0.0369873 -3.54146
vn 0.120318 -0.0103676 -0.992681
v 0.408935 -0.359301 -4.72543
vn 0.0859707 -0.0755362 -0.99343
v 0.408935 -0.359301 -4.72543
vn 0.0859707 -0.0755362 -0.99343
v 0.412156 -0.321446 -4.58903
vn 0.0892362 -0.0695966 -0.993576
v 0.410894 -0.375872 -4.80552
vn 0.084936 -0.0776967 -0.993352
v 0.410894 -0.375872 -4.80552
vn 0.084936 -0.0776967 -0.993352
v 0.42528 -0.191926 -4.12562
vn 0.10243 -0.0462257 -0.993666
v 0.414348 -0.384982 -4.83964
vn 0.0850367 -0.0790099 -0.99324
v 0.418736 -0.330992 -4.64662
vn 0.0895275 -0.0707675 -0.993467
v 0.42432 -0.305335 -4.56082
vn 0.0924307 -0.0665118 -0.993495
v 0.421446 -0.353235 -4.73656
vn 0.0883836 -0.0740786 -0.993328
v -0.292719 -0.322945 0.811612
vn -0.317743 -0.350553 0.880995
v -0.275611 -0.326136 0.853839
vn -0.288702 -0.341626 0.894395
v -0.322897 -0.318518 0.793675
vn -0.353228 -0.348438 0.868228
v -0.322715 -0.318645 0.83393
vn -0.33996 -0.335673 0.878493
v -0.267025 -0.326348 0.800485
vn -0.295135 -0.360703 0.884754
v -0.310255 -0.319701 0.803935
vn -0.337557 -0.347834 0.874681
v -0.310255 -0.319701 0.803935
vn -0.337557 -0.347834 0.874681
v -0.269431 -0.325179 0.811321
vn -0.294575 -0.355525 0.887033
v -0.269951 -0.324277 0.807615
vn -0.296261 -0.355882 0.886328
v -0.25442 -0.327628 0.810508
vn -0.279432 -0.359837 0.890188
v -0.28469 -0.323084 0.809869
vn -0.310379 -0.352237 0.882946
v -0.299829 -0.319615 0.820302
vn -0.322388 -0.343663 0.882021
v -0.367696 -0.309217 0.823428
vn -0.385694 -0.324352 0.863734
v -0.372414 -0.30922 0.82614
vn -0.388942 -0.322944 0.862805
v -0.247196 -0.326747 0.852915
vn -0.261245 -0.345318 0.901391
v -0.398498 -0.305631 0.826082
vn -0.4122 -0.31614 0.854486
v -0.251102 -0.326455 0.86947
vn -0.260998 -0.339321 0.903737
v -0.279209 -0.323217 0.893864
vn -0.28184 -0.326262 0.902286
v -0.425983 -0.30084 0.874285
vn -0.418448 -0.295518 0.858819
v -0.317563 -0.316102 0.861476
vn -0.327036 -0.325531 0.887174
v -0.321516 -0.315409 0.823574
vn -0.342517 -0.336012 0.87737
v -0.391365 -0.305546 0.800959
vn -0.415299 -0.324232 0.849942
v -0.443967 -0.2974 0.855978
vn -0.43997 -0.294723 0.848272
v -0.306895 -0.317429 0.865286
vn -0.315922 -0.326767 0.890739
v -0.373253 -0.307409 0.833481
vn -0.387356 -0.319024 0.864973
v -0.24304 -0.326098 0.852375
vn -0.25734 -0.345285 0.902527
v -0.292185 -0.318155 0.851133
vn -0.306121 -0.33333 0.891729
v -0.271187 -0.321914 0.902824
vn -0.272242 -0.323167 0.906337
v -0.351937 -0.309882 0.904044
vn -0.345571 -0.304277 0.887691
v -0.318082 -0.314737 0.846106
vn -0.332323 -0.328828 0.883987
v -0.377231 -0.306409 0.868366
vn -0.379084 -0.307914 0.872631
v -0.343868 -0.310754 0.865432
vn -0.350269 -0.316539 0.881541
v -0.273338 -0.320676 0.872103
vn -0.28221 -0.331085 0.900411
v -0.40772 -0.30147 0.849617
vn -0.412076 -0.304691 0.858695
v -0.412147 -0.300417 0.832227
vn -0.42225 -0.307782 0.852629
v -0.361937 -0.306824 0.85538
vn -0.370015 -0.313672 0.874471
v -0.37717 -0.305402 0.866883
vn -0.379643 -0.307405 0.872567
v -0.319241 -0.313867 0.877532
vn -0.324059 -0.318603 0.890774
v -0.382512 -0.304503 0.877228
vn -0.380884 -0.303207 0.873495
v -0.388113 -0.303358 0.848328
vn -0.395639 -0.30924 0.864778
v -0.201562 -0.329544 0.919275
vn -0.20214 -0.330488 0.921909
v -0.261062 -0.321525 0.875871
vn -0.269454 -0.331861 0.904026
v -0.340822 -0.309237 0.867743
vn -0.34699 -0.314833 0.883447
v -0.380889 -0.303453 0.871576
vn -0.381498 -0.303939 0.872972
v -0.201917 -0.32858 0.921419
vn -0.202145 -0.32895 0.922458
v -0.473159 -0.290094 0.877178
vn -0.45583 -0.27947 0.845054
v -0.255876 -0.321013 0.874882
vn -0.26477 -0.332172 0.905295
v -0.189164 -0.329992 0.923163
vn -0.189457 -0.330503 0.924594
v -0.249056 -0.321564 0.887195
vn -0.255184 -0.329476 0.909025
v -0.453049 -0.29254 0.900183
vn -0.431737 -0.278779 0.857838
v -0.382304 -0.30224 0.862055
vn -0.386058 -0.305208 0.870521
v -0.289537 -0.315544 0.897328
vn -0.291203 -0.317358 0.902488
v -0.289537 -0.315544 0.897328
vn -0.291203 -0.317358 0.902488
v -0.346512 -0.307852 0.87707
vn -0.3493 -0.31033 0.884129
v -0.302561 -0.313804 0.893983
vn -0.304205 -0.315509 0.89884
v -0.278086 -0.317796 0.858609
vn -0.290631 -0.332132 0.897342
v -0.361957 -0.305224 0.91051
vn -0.352696 -0.297415 0.887215
v -0.339549 -0.308473 0.905523
vn -0.3345 -0.303886 0.892056
v -0.264015 -0.31986 0.863167
vn -0.275694 -0.33401 0.901349
v -0.197542 -0.328093 0.920806
vn -0.198083 -0.32899 0.923325
v -0.271047 -0.316931 0.916847
vn -0.2691 -0.314655 0.910262
v -0.197939 -0.327604 0.895794
vn -0.203194 -0.3363 0.919573
v -0.44564 -0.292278 0.85215
vn -0.443389 -0.290802 0.847845
v -0.311695 -0.311707 0.924224
vn -0.3044 -0.304412 0.902593
v -0.284653 -0.31495 0.901635
vn -0.28563 -0.316032 0.904732
v -0.358464 -0.304873 0.885908
vn -0.357344 -0.303921 0.883141
v -0.278493 -0.31572 0.925816
vn -0.273826 -0.31043 0.910303
v -0.406565 -0.297685 0.868688
vn -0.404842 -0.296424 0.865006
v -0.332285 -0.307414 0.893155
vn -0.331847 -0.307009 0.891977
v -0.395171 -0.298244 0.851978
vn -0.401034 -0.302668 0.864618
v -0.264122 -0.318014 0.919041
vn -0.262095 -0.315573 0.911987
v -0.379959 -0.300106 0.925024
vn -0.363918 -0.287436 0.885971
v -0.36859 -0.302227 0.928336
vn -0.353206 -0.289613 0.88959
v -0.324593 -0.309082 0.908579
vn -0.32039 -0.30508 0.896815
v -0.180897 -0.328881 0.91261
vn -0.18332 -0.333285 0.924832
v -0.286253 -0.314279 0.880921
vn -0.292654 -0.321307 0.90062
v -0.383533 -0.299331 0.918928
vn -0.368862 -0.287882 0.883779
v -0.328198 -0.306389 0.929635
vn -0.317904 -0.296779 0.900477
v -0.328198 -0.306389 0.929635
vn -0.317904 -0.296779 0.900477
v -0.211599 -0.324642 0.926772
vn -0.210645 -0.323179 0.922596
v -0.320795 -0.308083 0.911603
vn -0.316266 -0.303733 0.898733
v -0.362379 -0.301423 0.90474
vn -0.355217 -0.295466 0.88686
v -0.266471 -0.315112 0.913002
vn -0.265956 -0.314503 0.911238
v -0.440139 -0.290199 0.928411
vn -0.412249 -0.27181 0.869581
v -0.218969 -0.322709 0.946389
vn -0.213922 -0.315271 0.924576
v -0.342328 -0.304419 0.931967
vn -0.329646 -0.293142 0.897441
v -0.160996 -0.329928 0.970187
vn -0.155204 -0.318057 0.935281
v -0.406835 -0.294929 0.943272
vn -0.380659 -0.275953 0.882581
v -0.235737 -0.319286 0.885306
vn -0.242978 -0.329094 0.912501
v -0.365059 -0.299931 0.935677
vn -0.348273 -0.28614 0.892653
v -0.365059 -0.299931 0.935677
vn -0.348273 -0.28614 0.892653
v -0.24276 -0.317887 0.925338
vn -0.240814 -0.315337 0.917917
v -0.24888 -0.316481 0.967636
vn -0.237468 -0.30197 0.923268
v -0.24888 -0.316481 0.967636
vn -0.237468 -0.30197 0.923268
v -0.285824 -0.311109 0.942316
vn -0.276777 -0.301261 0.912489
v -0.158546 -0.328872 0.979807
vn -0.151629 -0.314524 0.937061
v -0.314053 -0.30687 0.918725
vn -0.308421 -0.301367 0.90225
v -0.266259 -0.314225 0.963449
vn -0.254114 -0.299893 0.919505
v -0.204458 -0.322285 0.925622
vn -0.204208 -0.321892 0.924492
v -0.369036 -0.298103 0.922406
vn -0.355784 -0.287398 0.889281
v -0.332192 -0.302876 0.944854
vn -0.317479 -0.289461 0.903006
v -0.224231 -0.318859 0.977974
vn -0.212985 -0.302869 0.928928
v -0.224231 -0.318859 0.977974
vn -0.212985 -0.302869 0.928928
v -0.166825 -0.326776 0.91152
vn -0.169781 -0.332566 0.927671
v -0.178373 -0.324815 0.953739
vn -0.174329 -0.31745 0.932113
v -0.178373 -0.324815 0.953739
vn -0.174329 -0.31745 0.932113
v -0.374217 -0.296566 0.953399
vn -0.350955 -0.278131 0.894133
v -0.281582 -0.309657 0.892476
vn -0.285654 -0.314135 0.905384
v -0.281582 -0.309657 0.892476
vn -0.285654 -0.314135 0.905384
v -0.27565 -0.310733 0.93334
vn -0.269823 -0.304163 0.913608
v -0.192112 -0.32256 0.948017
vn -0.18841 -0.316343 0.929747
v -0.137794 -0.329542 1.00893
vn -0.128744 -0.3079 0.942668
v -0.137794 -0.329542 1.00893
vn -0.128744 -0.3079 0.942668
v -0.143567 -0.328501 0.9936
vn -0.135915 -0.310993 0.940644
v -0.168618 -0.325037 0.938109
vn -0.167439 -0.322765 0.931551
v -0.143401 -0.328372 0.985444
vn -0.136759 -0.313163 0.939801
v -0.143401 -0.328372 0.985444
vn -0.136759 -0.313163 0.939801
v -0.158577 -0.326665 0.97586
vn -0.152298 -0.31373 0.937219
v -0.249443 -0.313743 0.993436
vn -0.232852 -0.292877 0.927364
v -0.218518 -0.317919 0.922808
vn -0.218475 -0.317856 0.922625
v -0.234658 -0.315333 0.946217
vn -0.229022 -0.307759 0.92349
v -0.150941 -0.327292 0.979487
vn -0.144622 -0.31359 0.93848
v -0.323745 -0.301822 0.988862
vn -0.298823 -0.278587 0.91274
v -0.323745 -0.301822 0.988862
vn -0.298823 -0.278587 0.91274
v -0.347062 -0.297644 0.955813
vn -0.327559 -0.280919 0.902103
v -0.347062 -0.297644 0.955813
vn -0.327559 -0.280919 0.902103
v -0.115899 -0.331443 1.01285
vn -0.108116 -0.309186 0.944836
v -0.327686 -0.300728 0.966327
vn -0.308043 -0.2827 0.9084
v -0.138499 -0.327993 1.01398
vn -0.128876 -0.305204 0.943526
v -0.308176 -0.303209 0.970529
vn -0.290057 -0.285383 0.913468
v -0.195386 -0.320073 0.995828
vn -0.183617 -0.300794 0.935846
v -0.369383 -0.294106 0.992347
vn -0.336123 -0.267624 0.902994
v -0.259518 -0.309662 1.01683
vn -0.237185 -0.283014 0.929326
v -0.229889 -0.314299 0.991487
vn -0.215815 -0.295057 0.930787
v -0.337569 -0.298523 1.02247
vn -0.30211 -0.267165 0.91507
v -0.385929 -0.29056 0.978607
vn -0.353626 -0.26624 0.896697
v -0.31562 -0.301542 0.9718
vn -0.296264 -0.283049 0.912201
v -0.267204 -0.308358 0.99703
vn -0.248033 -0.286235 0.925499
v -0.266578 -0.307789 0.976519
vn -0.251962 -0.290913 0.922976
v -0.251373 -0.309813 1.00262
vn -0.232951 -0.287107 0.929141
v -0.251373 -0.309813 1.00262
vn -0.232951 -0.287107 0.929141
v -0.17152 -0.321583 1.00641
vn -0.160244 -0.300441 0.940243
v -0.247815 -0.309761 1.01342
vn -0.22771 -0.28463 0.9312
v -0.338959 -0.296966 1.01999
vn -0.303969 -0.266311 0.914703
v -0.362617 -0.292853 0.963149
vn -0.338893 -0.273693 0.900135
v -0.173883 -0.320459 1.0041
vn -0.162774 -0.299986 0.939954
v -0.250984 -0.308182 0.960474
vn -0.241456 -0.296483 0.924011
v -0.250984 -0.308182 0.960474
vn -0.241456 -0.296483 0.924011
v -0.129922 -0.326311 1.01151
vn -0.121338 -0.30475 0.944672
v -0.174251 -0.320016 0.994639
vn -0.164499 -0.302107 0.938974
v -0.297592 -0.301147 0.994871
vn -0.275239 -0.278527 0.920144
v -0.238958 -0.3097 1.00963
vn -0.220693 -0.286028 0.93246
v -0.123432 -0.326335 1.03418
vn -0.11309 -0.298992 0.947531
v -0.0893344 -0.331011 1.07145
vn -0.0794108 -0.294241 0.952426
v -0.294462 -0.301132 1.05577
vn -0.259055 -0.264924 0.92882
v -0.294462 -0.301132 1.05577
vn -0.259055 -0.264924 0.92882
v -0.222417 -0.311015 1.01371
vn -0.205291 -0.287067 0.935654
v -0.0929892 -0.330153 1.07823
vn -0.0821847 -0.291792 0.952944
v -0.203262 -0.313769 1.02448
vn -0.186384 -0.287714 0.939405
v -0.263917 -0.304093 0.976015
vn -0.249967 -0.288019 0.924425
v -0.123316 -0.324604 1.07852
vn -0.108836 -0.286489 0.951882
v -0.112191 -0.326339 1.00255
vn -0.105812 -0.307786 0.945554
v -0.0900035 -0.328684 1.04094
vn -0.0821723 -0.300085 0.950367
v -0.12067 -0.324992 1.03993
vn -0.110081 -0.296473 0.948676
v -0.0846924 -0.329207 1.06492
vn -0.0757629 -0.294497 0.952644
v -0.107658 -0.326258 1.05037
vn -0.0974167 -0.295222 0.950449
v -0.286945 -0.300019 1.0486
vn -0.254431 -0.266024 0.929783
v -0.198437 -0.312974 1.05508
vn -0.17745 -0.279873 0.943495
v -0.240491 -0.305998 1.01184
vn -0.221834 -0.282259 0.933338
v -0.183166 -0.314654 1.05713
vn -0.163823 -0.281426 0.945495
v -0.208704 -0.311458 0.999042
vn -0.195585 -0.291881 0.936244
v -0.076969 -0.329738 1.08175
vn -0.0679035 -0.290901 0.95434
v -0.136099 -0.3211 1.07112
vn -0.12082 -0.285051 0.950867
v -0.262328 -0.301742 1.03585
vn -0.236259 -0.271757 0.932915
v -0.185461 -0.313579 1.06945
vn -0.164154 -0.277552 0.946582
v -0.138207 -0.320317 1.09809
vn -0.119954 -0.278011 0.953059
v -0.158532 -0.316543 1.04659
vn -0.143487 -0.286504 0.947273
v -0.158532 -0.316543 1.04659
vn -0.143487 -0.286504 0.947273
v -0.109094 -0.323817 1.072
vn -0.0969597 -0.2878 0.95277
v -0.247048 -0.30249 1.04301
vn -0.221819 -0.271599 0.936499
v -0.165558 -0.314436 1.05127
vn -0.14919 -0.28335 0.947341
v -0.285588 -0.296348 1.06326
vn -0.250486 -0.259924 0.932575
v -0.207995 -0.307868 1.01428
vn -0.192554 -0.285012 0.938984
v -0.0632652 -0.329024 1.10364
vn -0.0548523 -0.285271 0.956876
v -0.230156 -0.304896 1.08043
vn -0.200838 -0.266058 0.942803
v -0.0835236 -0.326167 1.13002
vn -0.0708359 -0.276621 0.958365
v -0.0570343 -0.329879 1.1336
vn -0.0482525 -0.279086 0.959053
v -0.28244 -0.296135 1.09479
vn -0.241655 -0.253371 0.9367
v -0.0487341 -0.330566 1.14796
vn -0.0407611 -0.276485 0.960153
v -0.201067 -0.307525 1.05731
vn -0.179631 -0.27474 0.94459
v -0.292471 -0.293835 1.09888
vn -0.249021 -0.250181 0.935627
v -0.1066 -0.322635 1.10878
vn -0.0919223 -0.278212 0.956111
v -0.0589773 -0.328699 1.11726
vn -0.0505763 -0.281878 0.958116
v -0.139322 -0.315431 1.09835
vn -0.121022 -0.274 0.954085
v -0.277681 -0.295336 1.11568
vn -0.233927 -0.2488 0.939881
v -0.277681 -0.295336 1.11568
vn -0.233927 -0.2488 0.939881
v -0.0578275 -0.327512 1.10599
vn -0.0500709 -0.283582 0.95764
v -0.18969 -0.307809 1.0663
vn -0.168474 -0.273382 0.947037
v -0.0465525 -0.329475 1.16955
vn -0.0382843 -0.270957 0.96183
v -0.0582448 -0.326846 1.0968
vn -0.0508268 -0.285219 0.957114
v -0.11422 -0.318818 1.10421
vn -0.0988934 -0.276038 0.956046
v -0.263666 -0.295609 1.11979
vn -0.221981 -0.248874 0.942755
v -0.0447407 -0.328744 1.15908
vn -0.0371099 -0.272674 0.96139
v -0.0687257 -0.325006 1.1063
vn -0.0594976 -0.281366 0.957754
v -0.277929 -0.293061 1.10328
vn -0.236558 -0.249437 0.939053
v -0.0634822 -0.326304 1.12395
vn -0.054162 -0.278397 0.958938
v -0.242818 -0.298905 1.12453
vn -0.204282 -0.251468 0.946062
v -0.185307 -0.306746 1.04949
vn -0.167095 -0.276598 0.946347
v -0.236343 -0.297999 1.12415
vn -0.199152 -0.251106 0.947251
v -0.236343 -0.297999 1.12415
vn -0.199152 -0.251106 0.947251
v -0.213452 -0.302494 1.16378
vn -0.174782 -0.247692 0.952943
v -0.0880667 -0.321515 1.10056
vn -0.0765839 -0.279594 0.957059
v -0.00664013 -0.332903 1.18585
vn -0.005391 -0.270278 0.962767
v -0.115377 -0.316646 1.14247
vn -0.0968623 -0.265834 0.95914
v -0.195278 -0.305128 1.16647
vn -0.159877 -0.249813 0.955004
v -0.226808 -0.300896 1.1328
vn -0.189985 -0.252044 0.948883
v -0.16479 -0.309771 1.09355
vn -0.143487 -0.269727 0.952186
v -0.16479 -0.309771 1.09355
vn -0.143487 -0.269727 0.952186
v -0.236318 -0.297897 1.10116
vn -0.202855 -0.255714 0.94523
v -0.105481 -0.318287 1.18017
vn -0.0859752 -0.259428 0.961928
v -0.118902 -0.316116 1.15704
vn -0.0986471 -0.262267 0.95994
v -0.038339 -0.328076 1.15186
vn -0.031995 -0.273789 0.961258
v -0.216318 -0.301177 1.15832
vn -0.17786 -0.247632 0.952389
v -0.216318 -0.301177 1.15832
vn -0.17786 -0.247632 0.952389
v -0.123721 -0.314493 1.14659
vn -0.103501 -0.263094 0.959202
v -0.0297004 -0.328561 1.15183
vn -0.0247886 -0.274225 0.961346
v -0.24054 -0.296023 1.10806
vn -0.205261 -0.252607 0.945546
v -0.227959 -0.297678 1.1868
vn -0.183156 -0.239173 0.953546
v -0.0102068 -0.330379 1.20386
vn -0.00817578 -0.264639 0.964313
v -0.0102068 -0.330379 1.20386
vn -0.00817578 -0.264639 0.964313
v -0.201597 -0.301436 1.14775
vn -0.167485 -0.25043 0.953538
v -0.0702233 -0.321182 1.17635
vn -0.0574928 -0.262957 0.963093
v -0.154025 -0.307932 1.16864
vn -0.126426 -0.252755 0.959235
v -0.105414 -0.314895 1.14318
vn -0.0885515 -0.264522 0.960306
v -0.0241262 -0.327508 1.1772
vn -0.0197409 -0.267978 0.963223
v -0.0241262 -0.327508 1.1772
vn -0.0197409 -0.267978 0.963223
v -0.0973392 -0.317047 1.15856
vn -0.0807732 -0.263089 0.961384
v -0.0551216 -0.32257 1.18739
vn -0.044754 -0.261899 0.964057
v -0.129661 -0.310867 1.19269
vn -0.104621 -0.250834 0.96236
v -0.0539742 -0.322298 1.19615
vn -0.043528 -0.25992 0.964649
v -0.109348 -0.313412 1.18702
vn -0.088716 -0.254277 0.963054
v -0.0973371 -0.314043 1.14794
vn -0.0815153 -0.262997 0.961347
v -0.0169994 -0.326657 1.17281
vn -0.0139618 -0.268287 0.963238
v -0.158279 -0.305727 1.17296
vn -0.129478 -0.250097 0.959524
v -0.0819231 -0.316619 1.13339
vn -0.0694482 -0.268406 0.960799
v -0.167614 -0.304223 1.17915
vn -0.136355 -0.247487 0.959248
v -0.0433938 -0.322679 1.17403
vn -0.0356171 -0.264851 0.963631
v -0.075874 -0.317015 1.20461
vn -0.0607999 -0.254033 0.965283
v -0.211681 -0.295984 1.15591
vn -0.174679 -0.244246 0.953851
v -0.0765896 -0.316953 1.14937
vn -0.0641065 -0.265294 0.962034
v -0.126871 -0.309186 1.2036
vn -0.101567 -0.24752 0.963544
v -0.0313765 -0.32396 1.24406
vn -0.0243997 -0.251925 0.967439
v -0.00132762 -0.327431 1.25095
vn -0.0010267 -0.253215 0.96741
v -0.226998 -0.292634 1.21342
vn -0.178925 -0.23066 0.956442
v -0.0968465 -0.313185 1.18939
vn -0.0784986 -0.253851 0.964053
v 0.0137972 -0.329797 1.25345
vn 0.0106444 -0.254437 0.967031
v -0.048684 -0.318929 1.22514
vn -0.0384275 -0.251739 0.967032
v -0.0562357 -0.318204 1.20227
vn -0.0451717 -0.2556 0.965727
v -0.0735404 -0.315829 1.23054
vn -0.0577898 -0.248186 0.966987
v 0.0434139 -0.33206 1.28595
vn 0.0326705 -0.249887 0.967724
v -0.00219098 -0.325438 1.27074
vn -0.00167027 -0.248093 0.968735
v -0.128367 -0.305757 1.23097
vn -0.100692 -0.239837 0.965577
v -0.118747 -0.306653 1.24016
vn -0.0925529 -0.239008 0.966597
v 0.00364193 -0.325602 1.24792
vn 0.00282384 -0.252462 0.967603
v -0.178359 -0.298056 1.20775
vn -0.141925 -0.237172 0.961045
v -0.105875 -0.309873 1.19857
vn -0.0852116 -0.249395 0.964646
v -0.0951035 -0.310904 1.23603
vn -0.0744113 -0.243259 0.967103
v -0.14439 -0.30339 1.19316
vn -0.116484 -0.244754 0.962563
v -0.0136428 -0.322977 1.19692
vn -0.011004 -0.260507 0.965409
v -0.0749558 -0.314563 1.2789
vn -0.0568213 -0.238459 0.969489
v -0.135062 -0.30408 1.21838
vn -0.106938 -0.240761 0.964675
v 0.020808 -0.328007 1.28053
vn 0.0157393 -0.248107 0.968605
v 0.0303935 -0.329027 1.29376
vn 0.0227616 -0.246408 0.968899
v -0.0025951 -0.323702 1.26204
vn -0.0019918 -0.248449 0.968643
v -0.115322 -0.306127 1.26578
vn -0.0882093 -0.234155 0.968189
v -0.0430326 -0.31841 1.27831
vn -0.0326481 -0.241572 0.969833
v -0.142573 -0.302172 1.25957
vn -0.109407 -0.231881 0.966572
v -0.0181871 -0.321102 1.22468
vn -0.0143634 -0.253593 0.967204
v 0.0295451 -0.327292 1.26518
vn 0.0226025 -0.250384 0.967883
v -0.0656873 -0.313612 1.25261
vn -0.0508046 -0.242557 0.968806
v -0.15524 -0.299291 1.27084
vn -0.118071 -0.227631 0.966563
v -0.15524 -0.299291 1.27084
vn -0.118071 -0.227631 0.966563
v 0.0336585 -0.328113 1.33224
vn 0.0245243 -0.239069 0.970693
v 0.0219212 -0.325638 1.29942
vn 0.0163618 -0.243053 0.969875
v -0.0962012 -0.305382 1.19577
vn -0.0777137 -0.246695 0.965972
v 0.0439886 -0.327946 1.3152
vn 0.0324357 -0.241816 0.96978
v 0.0439886 -0.327946 1.3152
vn 0.0324357 -0.241816 0.96978
v -0.0652629 -0.310519 1.28187
vn -0.0494208 -0.235143 0.970703
v 0.0820411 -0.332558 1.33336
vn 0.0595947 -0.24157 0.968552
v -0.151026 -0.296929 1.26588
vn -0.115377 -0.22684 0.967074
v -0.124711 -0.299499 1.25755
vn -0.0960259 -0.230611 0.968296
v 0.00793992 -0.321669 1.29898
vn 0.00593311 -0.240367 0.970664
v 0.0689831 -0.330346 1.35149
vn 0.0495218 -0.23715 0.97021
v 0.0664953 -0.329533 1.31649
vn 0.0489393 -0.24253 0.968909
v -0.0267129 -0.31508 1.32102
vn -0.0196659 -0.23196 0.972527
v 0.0717021 -0.32966 1.36644
vn 0.050944 -0.234222 0.970847
v -0.108561 -0.301796 1.31956
vn -0.0799432 -0.22224 0.971709
v -0.00605689 -0.317587 1.32516
vn -0.00444479 -0.233058 0.972453
v -0.00605689 -0.317587 1.32516
vn -0.00444479 -0.233058 0.972453
v 0.0894474 -0.332451 1.36016
vn 0.0637519 -0.236948 0.969428
v -0.0903684 -0.305067 1.29994
vn -0.0675241 -0.227948 0.971329
v 0.0539517 -0.327218 1.35896
vn 0.0385688 -0.23392 0.97149
v -0.0759793 -0.3073 1.2971
vn -0.0569062 -0.230159 0.971488
v 0.0251738 -0.322515 1.35044
vn 0.0181283 -0.232251 0.972487
v -0.0339947 -0.312681 1.28846
vn -0.0256315 -0.235756 0.971474
v 0.032232 -0.321763 1.34232
vn 0.0233444 -0.23304 0.972187
v -0.0134204 -0.315547 1.30006
vn -0.0100311 -0.235858 0.971736
v 0.0978135 -0.332261 1.33646
vn 0.0708481 -0.240663 0.96802
v 0.00368783 -0.316938 1.32932
vn 0.00269857 -0.23192 0.972731
v 0.0965459 -0.330679 1.34821
vn 0.0693816 -0.237639 0.968873
v 0.0773714 -0.327761 1.33022
vn 0.0563856 -0.238861 0.969415
v -0.0581677 -0.30573 1.26303
vn -0.0447166 -0.235031 0.970959
v 0.00660932 -0.316602 1.34878
vn 0.0047705 -0.228518 0.973528
v 0.0207546 -0.318406 1.3354
vn 0.0151163 -0.231906 0.972621
v 0.0207546 -0.318406 1.3354
vn 0.0151163 -0.231906 0.972621
v 0.104912 -0.331029 1.42351
vn 0.0715998 -0.22592 0.971511
v -0.0403191 -0.309196 1.35454
vn -0.0290073 -0.222449 0.974513
v -0.0308526 -0.309736 1.36976
vn -0.0219642 -0.220502 0.975139
v -0.00566636 -0.313925 1.35188
vn -0.0040828 -0.226194 0.974074
v -0.0642976 -0.30355 1.32538
vn -0.0472355 -0.222999 0.973674
v 0.120685 -0.332401 1.41331
vn 0.0828378 -0.228159 0.970093
v 0.0949045 -0.328405 1.36405
vn 0.0674885 -0.233535 0.970003
v 0.0131575 -0.315869 1.39689
vn 0.00918675 -0.220545 0.975333
v 0.0522492 -0.321658 1.39436
vn 0.0364886 -0.224632 0.97376
v 0.129556 -0.333493 1.37029
vn 0.0914793 -0.235479 0.967565
v 0.129556 -0.333493 1.37029
vn 0.0914793 -0.235479 0.967565
v 0.0689913 -0.323417 1.39485
vn 0.0481273 -0.225611 0.973028
v -0.0300728 -0.307006 1.39501
vn -0.021049 -0.214884 0.976413
v 0.118943 -0.330053 1.43526
vn 0.0805021 -0.223383 0.971401
v 0.130481 -0.331613 1.45531
vn 0.0870853 -0.221325 0.971304
v 0.111301 -0.329127 1.418
vn 0.0762368 -0.225439 0.97127
v -0.0391233 -0.303935 1.33435
vn -0.0285761 -0.221998 0.974628
v 0.144267 -0.333805 1.44373
vn 0.0968999 -0.224207 0.969712
v 0.0360348 -0.316161 1.3792
vn 0.0254585 -0.223366 0.974402
v -0.0113139 -0.307325 1.42906
vn -0.00773987 -0.210241 0.977619
v -0.0643803 -0.298902 1.41261
vn -0.0445438 -0.206806 0.977367
v 0.126425 -0.329216 1.41991
vn 0.0864119 -0.225021 0.970515
v 0.132339 -0.330102 1.46022
vn 0.0880555 -0.219643 0.971598
v 0.0422729 -0.316027 1.44206
vn 0.028623 -0.213982 0.976418
v -0.0670221 -0.297869 1.39915
vn -0.0468009 -0.207999 0.977009
v -0.0344267 -0.302958 1.4425
vn -0.02335 -0.205482 0.978382
v -0.0822527 -0.294413 1.43831
vn -0.0559377 -0.200222 0.978152
v 0.00894177 -0.308103 1.39341
vn 0.00626571 -0.215895 0.976397
v 0.0248298 -0.310568 1.47963
vn 0.016421 -0.205392 0.978542
v 0.0801264 -0.319554 1.38582
vn 0.0562511 -0.224336 0.972887
v 0.184471 -0.335489 1.51893
vn 0.117765 -0.214174 0.969671
v 0.0804319 -0.318059 1.42469
vn 0.0550161 -0.217555 0.974496
v 0.119148 -0.324612 1.44224
vn 0.0803363 -0.218872 0.972441
v 0.0339826 -0.310781 1.49373
vn 0.0222677 -0.203644 0.978792
v 0.0620285 -0.314928 1.40395
vn 0.0430701 -0.218673 0.974847
v 0.170542 -0.332484 1.49
vn 0.11102 -0.216441 0.969963
v -0.0258586 -0.30067 1.44541
vn -0.0175125 -0.203627 0.978892
v -0.0258586 -0.30067 1.44541
vn -0.0175125 -0.203627 0.978892
v -0.0554363 -0.295063 1.4212
vn -0.0381643 -0.203132 0.978407
v 0.194077 -0.334273 1.48029
vn 0.126854 -0.21849 0.967559
v 0.109209 -0.320006 1.50209
vn 0.0709298 -0.20784 0.975588
v 0.161985 -0.328757 1.51206
vn 0.104114 -0.211306 0.971859
v 0.161985 -0.328757 1.51206
vn 0.104114 -0.211306 0.971859
v -0.0110469 -0.300454 1.50048
vn -0.00721875 -0.196336 0.98051
v 0.113792 -0.31972 1.49631
vn 0.0741647 -0.20838 0.975232
v 0.104247 -0.318745 1.49021
vn 0.0682477 -0.208675 0.975601
v 0.0706367 -0.312854 1.49724
vn 0.0461313 -0.204318 0.977817
v 0.0043322 -0.301888 1.5218
vn 0.00279233 -0.194583 0.980882
v 0.12513 -0.319961 1.56364
vn 0.0781608 -0.199859 0.976702
v 0.0819263 -0.313131 1.54951
vn 0.0517552 -0.197814 0.978872
v 0.0819263 -0.313131 1.54951
vn 0.0517552 -0.197814 0.978872
v 0.120181 -0.318686 1.51084
vn 0.0775984 -0.205769 0.975519
v 0.224983 -0.334327 1.55762
vn 0.139836 -0.207798 0.968125
v 0.101296 -0.314265 1.5713
vn 0.0630884 -0.195728 0.978627
v 0.217198 -0.333109 1.55326
vn 0.135464 -0.207757 0.968755
v 0.0380027 -0.303786 1.57977
vn 0.0236164 -0.188785 0.981734
v 0.170646 -0.325099 1.58856
vn 0.104663 -0.199393 0.974314
v 0.0843507 -0.310385 1.56677
vn 0.0527375 -0.194058 0.979571
v 0.165102 -0.322303 1.61092
vn 0.0999941 -0.195203 0.975652
v 0.0939565 -0.311467 1.58085
vn 0.0582143 -0.192981 0.979474
v 0.238569 -0.334677 1.63371
vn 0.141616 -0.198667 0.969782
v 0.19852 -0.327324 1.63383
vn 0.118302 -0.195059 0.973631
v 0.0411775 -0.301646 1.56343
vn 0.0258523 -0.189381 0.981563
v 0.222651 -0.331469 1.59812
vn 0.135165 -0.201225 0.970175
v 0.23938 -0.333229 1.59892
vn 0.145015 -0.201869 0.968617
v 0.164881 -0.320451 1.63179
vn 0.0986656 -0.19176 0.97647
v 0.137024 -0.315404 1.61249
vn 0.0831082 -0.191299 0.978007
v 0.111463 -0.31122 1.59847
vn 0.0682861 -0.190664 0.979277
v 0.149948 -0.317688 1.61023
vn 0.0909821 -0.192759 0.977019
v 0.259571 -0.334173 1.64697
vn 0.152647 -0.196519 0.968545
v 0.218812 -0.326709 1.65366
vn 0.12873 -0.192208 0.972874
v 0.173115 -0.319157 1.70338
vn 0.0993974 -0.18325 0.978028
v 0.284934 -0.335936 1.71842
vn 0.160618 -0.189369 0.96868
v 0.0776754 -0.301478 1.66523
vn 0.045851 -0.177959 0.982969
v 0.123464 -0.309922 1.63696
vn 0.0739035 -0.185514 0.979858
v 0.283517 -0.335511 1.74088
vn 0.15791 -0.186869 0.969611
v 0.283517 -0.335511 1.74088
vn 0.15791 -0.186869 0.969611
v 0.297285 -0.336694 1.71713
vn 0.167494 -0.189698 0.967451
v 0.233872 -0.32543 1.74375
vn 0.130713 -0.181885 0.974593
v 0.111332 -0.306263 1.6892
vn 0.0647146 -0.178024 0.981896
v 0.303853 -0.336802 1.75527
vn 0.167602 -0.185777 0.968192
v 0.303853 -0.336802 1.75527
vn 0.167602 -0.185777 0.968192
v 0.177179 -0.317056 1.71494
vn 0.101073 -0.180867 0.9783
v 0.154449 -0.311832 1.67556
vn 0.0902513 -0.182218 0.979107
v 0.29869 -0.335702 1.75907
vn 0.164517 -0.184903 0.968889
v 0.190482 -0.317906 1.63813
vn 0.113414 -0.189283 0.975351
v 0.274094 -0.332121 1.69221
vn 0.156971 -0.190202 0.969115
v 0.282032 -0.332053 1.76009
vn 0.155543 -0.18313 0.970706
v 0.282032 -0.332053 1.76009
vn 0.155543 -0.18313 0.970706
v 0.268168 -0.329675 1.72904
vn 0.150614 -0.185159 0.971098
v 0.171117 -0.313688 1.71163
vn 0.0978634 -0.179401 0.978896
v 0.291075 -0.333387 1.74439
vn 0.161739 -0.18525 0.96929
v 0.247309 -0.325266 1.68365
vn 0.142745 -0.187741 0.971791
v 0.247364 -0.324236 1.76993
vn 0.136191 -0.178514 0.974467
v 0.198422 -0.315714 1.73583
vn 0.11176 -0.177823 0.977696
v 0.142098 -0.304511 1.74754
vn 0.0798503 -0.171117 0.98201
v 0.0936708 -0.295562 1.721
vn 0.0535658 -0.169017 0.984156
v 0.149172 -0.303699 1.79596
vn 0.0816234 -0.166177 0.982712
v 0.340072 -0.336179 1.83796
vn 0.179066 -0.177016 0.967781
v 0.18686 -0.31127 1.78475
vn 0.102597 -0.170905 0.979931
v 0.248646 -0.319221 1.77128
vn 0.136851 -0.175694 0.974886
v 0.323734 -0.332003 1.8645
vn 0.168498 -0.172801 0.970437
v 0.2238 -0.314777 1.81381
vn 0.120681 -0.169739 0.978072
v 0.355498 -0.337852 1.8058
vn 0.189983 -0.180553 0.965043
v 0.293943 -0.327356 1.80768
vn 0.157996 -0.175955 0.971636
v 0.103984 -0.294927 1.75011
vn 0.0584894 -0.165891 0.984408
v 0.201784 -0.310053 1.80585
vn 0.109466 -0.168201 0.979656
v 0.201784 -0.310053 1.80585
vn 0.109466 -0.168201 0.979656
v 0.231392 -0.315041 1.77838
vn 0.12708 -0.17302 0.976686
v 0.272887 -0.322039 1.8408
vn 0.144494 -0.170519 0.974702
v 0.267177 -0.320011 1.87751
vn 0.138921 -0.166392 0.976225
v 0.344425 -0.331796 1.91619
vn 0.174395 -0.168 0.970238
v 0.330422 -0.329779 1.89231
vn 0.169531 -0.169201 0.970892
v 0.281728 -0.319896 1.89317
vn 0.145178 -0.164847 0.975576
v 0.271187 -0.31767 1.85172
vn 0.142862 -0.167349 0.975492
v 0.226782 -0.310564 1.88769
vn 0.117719 -0.161209 0.979874
v 0.278902 -0.317518 1.86302
vn 0.145996 -0.166209 0.975223
v 0.378266 -0.332446 1.96915
vn 0.186107 -0.163563 0.96882
v 0.324814 -0.320344 1.95204
vn 0.162031 -0.159801 0.97376
v 0.324814 -0.320344 1.95204
vn 0.162031 -0.159801 0.97376
v 0.338406 -0.324535 2.01439
vn 0.16362 -0.156914 0.973964
v 0.338406 -0.324535 2.01439
vn 0.16362 -0.156914 0.973964
v 0.208976 -0.299047 1.93258
vn 0.106257 -0.152054 0.982644
v 0.441047 -0.33714 2.03196
vn 0.209381 -0.160053 0.964646
v 0.334196 -0.316918 2.02738
vn 0.160746 -0.152435 0.975154
v 0.251817 -0.300755 1.97123
vn 0.12529 -0.149638 0.980771
v 0.340331 -0.360865 -4.51133
vn 0.0749873 -0.0795116 -0.994009
v 0.321422 -0.25197 -4.18395
vn 0.0764592 -0.059938 -0.99527
v 0.401575 -0.347332 -4.51809
vn 0.088274 -0.0763503 -0.993166
v 0.401575 -0.347332 -4.51809
vn 0.088274 -0.0763503 -0.993166
v 0.352741 -0.229377 -4.15631
vn 0.0844372 -0.054907 -0.994915
v 0.335249 -0.188291 -4.02032
vn 0.0830099 -0.0466221 -0.995458
v 0.440791 -0.369262 -4.60866
vn 0.0949081 -0.0795071 -0.992306
v 0.446619 -0.373577 -4.63026
vn 0.0957027 -0.080051 -0.992186
v 0.434326 -0.331842 -4.50317
vn 0.0957462 -0.0731538 -0.992714
v 0.395404 -0.234592 -4.21133
vn 0.093336 -0.055376 -0.994094
v 0.411127 -0.269743 -4.30693
vn 0.0948408 -0.0622258 -0.993546
v 0.459014 -0.378274 -4.64273
vn 0.0980659 -0.0808163 -0.991893
v 0.462177 -0.371088 -4.62811
vn 0.0990539 -0.0795318 -0.991899
v 0.413936 -0.252358 -4.27001
vn 0.0963215 -0.0587228 -0.993617
v 0.387564 -0.185567 -4.07209
vn 0.0946501 -0.0453188 -0.994479
v 0.365011 -0.125224 -3.87308
vn 0.0937788 -0.0321726 -0.995073
v 0.467922 -0.363425 -4.61231
vn 0.100624 -0.0781524 -0.99185
v 0.475613 -0.374807 -4.64763
vn 0.101477 -0.0799689 -0.991619
v 0.408618 -0.198609 -4.11227
vn 0.0987645 -0.0480045 -0.993952
v 0.406222 -0.17216 -4.03929
vn 0.099973 -0.0423694 -0.994088
v 0.469452 -0.212698 -4.18013
vn 0.111462 -0.0505008 -0.992485
v 0.47126 -0.205199 -4.16244
vn 0.112364 -0.0489261 -0.992462
v 0.465699 -0.160321 -4.03432
vn 0.114584 -0.0394463 -0.99263
v 0.54224 -0.368514 -4.64102
vn 0.115688 -0.0786231 -0.990169
v 0.549872 -0.366649 -4.62878
vn 0.117602 -0.0784155 -0.98996
v 0.552164 -0.368986 -4.63662
vn 0.117885 -0.0787769 -0.989898
v 0.5552 -0.372093 -4.65004
vn 0.118182 -0.0792054 -0.989828
v 0.5552 -0.372093 -4.65004
vn 0.118182 -0.0792054 -0.989828
v 0.555344 -0.363917 -4.63161
vn 0.11869 -0.0777774 -0.989881
v 0.557307 -0.371136 -4.63587
vn 0.118982 -0.0792353 -0.98973
v 0.542113 -0.24896 -4.29718
vn 0.124957 -0.0573852 -0.990501
v 0.544435 -0.205825 -4.17438
vn 0.129173 -0.0488343 -0.990419
v 0.548781 -0.206372 -4.17469
vn 0.130177 -0.0489537 -0.990282
v 0.55064 -0.209963 -4.18047
vn 0.130428 -0.0497329 -0.99021
v 0.591514 -0.364572 -4.6235
vn 0.126516 -0.0779764 -0.988895
v 0.561522 -0.198559 -4.1601
vn 0.133615 -0.0472476 -0.989906
v 0.598467 -0.366406 -4.61502
vn 0.128204 -0.0784919 -0.988637
v 0.59947 -0.361996 -4.61231
vn 0.128499 -0.0775956 -0.988669
v 0.585057 -0.275507 -4.36888
vn 0.132471 -0.0623815 -0.989222
v 0.604729 -0.363602 -4.60565
vn 0.129787 -0.0780364 -0.988466
v 0.593959 -0.274068 -4.35565
vn 0.134853 -0.0622246 -0.98891
v 0.614877 -0.365868 -4.60965
vn 0.131811 -0.0784308 -0.988167
v 0.614404 -0.363534 -4.60856
vn 0.131747 -0.0779526 -0.988214
v 0.621737 -0.3586 -4.59479
vn 0.133692 -0.07711 -0.988018
v 0.640916 -0.358085 -4.58243
vn 0.138103 -0.077159 -0.987408
v 0.647653 -0.361964 -4.57613
vn 0.139704 -0.0780787 -0.98711
v 0.655586 -0.358982 -4.57061
vn 0.141555 -0.0775118 -0.986891
v 0.662548 -0.357695 -4.56732
vn 0.143131 -0.0772732 -0.986683
v 0.663751 -0.358881 -4.56857
vn 0.143344 -0.0775043 -0.986633
v 0.658793 -0.322446 -4.46881
vn 0.145474 -0.0712021 -0.986797
v 0.671778 -0.355571 -4.5559
vn 0.145442 -0.0769823 -0.986367
v -0.191684 -0.297558 -2.38177
vn -0.0796057 -0.123574 -0.989137
v -0.191684 -0.297558 -2.38177
vn -0.0796057 -0.123574 -0.989137
v -1.6914 1.93042 9.3857
vn -0.173828 0.198393 0.964585
v -1.6914 1.93042 9.3857
vn -0.173828 0.198393 0.964585
v -3.20434 4.11226 21.2785
vn -0.146265 0.187708 0.971274
v -2.38754 2.99714 15.0872
vn -0.15338 0.192542 0.969228
v -3.36266 4.49372 22.8643
vn -0.14283 0.190872 0.971168
v -3.23815 4.28845 21.9289
vn -0.143422 0.189941 0.971263
v -1.62139 1.89224 9.17756
vn -0.170496 0.198977 0.965059
v -1.62139 1.89224 9.17756
vn -0.170496 0.198977 0.965059
v -0.172041 -0.278432 -2.33068
vn -0.0730985 -0.118303 -0.990283
v -2.92331 3.92641 19.9994
vn -0.141979 0.190697 0.971327
v -3.14949 4.31157 21.8934
vn -0.139759 0.191327 0.971525
v -5.38389 7.75415 40.2706
vn -0.130164 0.187469 0.973608
v -1.45433 1.74005 8.28623
vn -0.169286 0.202545 0.96453
v -1.45433 1.74005 8.28623
vn -0.169286 0.202545 0.96453
v -1.59254 1.99763 9.68292
vn -0.159027 0.199479 0.966912
v -0.13634 -0.303978 -2.48595
vn -0.0543581 -0.121195 -0.991139
v -1.92779 2.59572 12.7748
vn -0.146292 0.19698 0.969432
v -0.162075 -0.243405 -2.16108
vn -0.0743198 -0.111614 -0.990969
v -0.127171 -0.295164 -2.45725
vn -0.0513165 -0.119105 -0.991555
v -3.03919 4.46405 22.5652
vn -0.130986 0.192396 0.972536
v -1.97662 2.79346 13.7593
vn -0.13941 0.197021 0.970437
v -1.97662 2.79346 13.7593
vn -0.13941 0.197021 0.970437
v -3.3627 5.22273 26.2871
vn -0.124494 0.193356 0.973198
v -0.136908 -0.232044 -2.20174
vn -0.061721 -0.104611 -0.992596
v -1.79672 2.6837 12.8109
vn -0.135995 0.20313 0.969662
v -1.79672 2.6837 12.8109
vn -0.135995 0.20313 0.969662
v -1.17311 1.65421 7.48978
vn -0.151184 0.213186 0.965244
v -0.125537 -0.204674 -2.05061
vn -0.0608036 -0.099134 -0.993215
v -0.106316 -0.198525 -2.06861
vn -0.051093 -0.0954066 -0.994126
v -1.66751 2.73355 13.2241
vn -0.122555 0.200904 0.971914
v -1.46097 2.36405 11.2266
vn -0.126322 0.204406 0.970701
v -1.46097 2.36405 11.2266
vn -0.126322 0.204406 0.970701
v -0.0436518 -0.313763 -2.64421
vn -0.0163912 -0.117818 -0.9929
v -2.94884 5.21488 26.003
vn -0.110509 0.19543 0.974472
v -0.0498812 -0.303212 -2.565
vn -0.0193088 -0.117372 -0.9929
v -3.42303 6.10486 30.7884
vn -0.108413 0.193351 0.975121
v -3.50425 6.32331 32.3031
vn -0.105862 0.191024 0.97586
v -1.05081 1.71235 7.77305
vn -0.130885 0.213285 0.968183
v -1.05081 1.71235 7.77305
vn -0.130885 0.213285 0.968183
v -2.27157 4.12362 20.2203
vn -0.109415 0.198622 0.973949
v -1.00797 1.62021 7.37992
vn -0.132234 0.212553 0.968161
v -0.0842305 -0.193647 -2.02406
vn -0.0413899 -0.0951558 -0.994602
v -0.0412365 -0.271703 -2.45887
vn -0.0166667 -0.109815 -0.993812
v -0.0412365 -0.271703 -2.45887
vn -0.0166667 -0.109815 -0.993812
v -2.26953 4.24543 20.6875
vn -0.10685 0.199877 0.973978
v -2.26953 4.24543 20.6875
vn -0.10685 0.199877 0.973978
v -1.54787 2.75254 13.2097
vn -0.113966 0.202662 0.972594
v -1.54787 2.75254 13.2097
vn -0.113966 0.202662 0.972594
v -0.180997 0.0196467 -0.981591
vn -0.181299 0.0196795 -0.983231
v -1.97191 3.63294 17.6218
vn -0.108944 0.200713 0.973574
v -0.0254199 -0.286834 -2.58659
vn -0.00976722 -0.110212 -0.99386
v -1.22014 2.13343 9.89914
vn -0.119626 0.209167 0.970535
v -2.81751 5.39118 26.6281
vn -0.103152 0.197378 0.974885
v -0.925341 1.53871 6.86015
vn -0.130491 0.216988 0.967413
v -2.78798 5.2969 26.5858
vn -0.102306 0.194372 0.975578
v -0.181181 0.0502216 -0.882236
vn -0.200855 0.0556752 -0.978038
v -1.43901 2.58235 12.464
vn -0.112336 0.201592 0.973006
v -2.61066 5.29433 26.2068
vn -0.097183 0.197084 0.975558
v -0.0427453 -0.2075 -2.11987
vn -0.0200642 -0.0973984 -0.995043
v -0.932768 1.74957 7.83144
vn -0.115463 0.21657 0.969415
v -1.69428 3.44741 16.5285
vn -0.099846 0.20316 0.974042
v -1.30226 2.58361 12.1531
vn -0.104241 0.206809 0.972812
v 0.0215664 -0.308891 -2.68178
vn 0.00798875 -0.114421 -0.9934
v -2.19447 4.72678 23.3849
vn -0.0915946 0.19729 0.976057
v -2.19447 4.72678 23.3849
vn -0.0915946 0.19729 0.976057
v -0.0129869 -0.211758 -2.18884
vn -0.00590553 -0.0962929 -0.995336
v -0.0129869 -0.211758 -2.18884
vn -0.00590553 -0.0962929 -0.995336
v -0.756432 1.50309 6.61744
vn -0.110783 0.220135 0.969158
v -0.756432 1.50309 6.61744
vn -0.110783 0.220135 0.969158
v -0.109699 0.0261258 -0.948572
vn -0.114837 0.0273497 -0.993008
v -0.00714886 -0.209716 -2.15855
vn -0.00329634 -0.0967003 -0.995308
v -0.00714886 -0.209716 -2.15855
vn -0.00329634 -0.0967003 -0.995308
v 0.00692399 -0.240754 -2.32016
vn 0.00296832 -0.103211 -0.994655
v -0.390978 0.713921 2.55314
vn -0.145901 0.266413 0.952752
v -0.881791 1.91333 8.69756
vn -0.0985343 0.213802 0.971895
v -0.16433 0.259914 0.167235
vn -0.469462 0.742529 0.477762
v 0.0658158 -0.283015 -2.54996
vn 0.0256446 -0.110275 -0.99357
v -1.12469 3.12212 14.9972
vn -0.0732223 0.203264 0.976382
v 0.0921821 -0.298073 -2.65672
vn 0.0344609 -0.11143 -0.993175
v -0.204028 0.669359 2.2202
vn -0.0876459 0.287542 0.953749
v -0.999662 3.32439 16.1008
vn -0.060693 0.201835 0.977537
v -0.390399 1.46318 6.32951
vn -0.0599862 0.224823 0.972552
v -0.390399 1.46318 6.32951
vn -0.0599862 0.224823 0.972552
v -0.941848 3.34921 16.0262
vn -0.0574317 0.204227 0.977237
v -0.941848 3.34921 16.0262
vn -0.0574317 0.204227 0.977237
v -0.36807 1.4688 6.40897
vn -0.0558917 0.223039 0.973206
v -0.36807 1.4688 6.40897
vn -0.0558917 0.223039 0.973206
v 0.10641 -0.15511 -1.93944
vn 0.05461 -0.0796035 -0.99533
v 0.0818005 -0.0511052 -1.44851
vn 0.0563475 -0.0352034 -0.99779
v -0.848609 3.36227 16.1849
vn -0.0512685 0.203131 0.977809
v 0.0947705 0.0689074 -0.826208
vn 0.113569 0.0825757 -0.990093
v -0.61411 3.09409 14.7986
vn -0.040586 0.204486 0.978028
v 0.0772064 0.230627 -0.0038224
vn 0.317412 0.948158 -0.0157147
v 0.0772064 0.230627 -0.0038224
vn 0.317412 0.948158 -0.0157147
v 0.125659 0.0228492 -1.04542
vn 0.119313 0.0216952 -0.99262
v -0.145404 1.40906 6.41585
vn -0.0221303 0.214456 0.976483
v -0.145404 1.40906 6.41585
vn -0.0221303 0.214456 0.976483
v 0.274082 -0.123795 -1.75518
vn 0.153913 -0.0695183 -0.985636
v 0.108153 1.46281 6.63621
vn 0.0159133 0.215234 0.976433
v 0.280272 -0.168564 -1.94753
vn 0.141924 -0.0853576 -0.98619
v 0.279231 -0.134745 -1.78967
vn 0.153734 -0.0741853 -0.985323
v 0.284019 -0.145221 -1.81636
vn 0.15401 -0.0787465 -0.984926
v 0.282845 -0.115884 -1.66927
vn 0.166671 -0.0682869 -0.983645
v 0.289409 -0.163785 -1.92739
vn 0.14797 -0.0837405 -0.98544
v 0.294995 -0.0946498 -1.51449
vn 0.19083 -0.0612283 -0.979712
v 0.305959 -0.176346 -1.96869
vn 0.15297 -0.0881677 -0.98429
v 0.16067 2.02824 9.76416
vn 0.0161091 0.203355 0.978973
v 0.130317 2.97143 14.782
vn 0.00864273 0.197067 0.980352
v 0.320257 -0.101134 -1.57436
vn 0.198944 -0.0628244 -0.977995
v 0.232781 2.46636 12.2635
vn 0.0186058 0.197132 0.9802
v 0.316831 3.47353 18.2232
vn 0.0170761 0.187212 0.982171
v 0.464695 2.9302 15.1163
vn 0.0301659 0.190215 0.981279
v 0.489566 3.64781 19.1159
vn 0.0251485 0.187384 0.981965
v 0.489566 3.64781 19.1159
vn 0.0251485 0.187384 0.981965
v 0.400762 -0.143408 -1.72843
vn 0.225139 -0.0805633 -0.97099
v 0.531899 3.67066 19.5844
vn 0.0266849 0.184154 0.982535
v 0.448945 1.22219 5.59615
vn 0.0781369 0.212716 0.973985
v 0.412664 -0.0214598 -1.03856
vn 0.369192 -0.0191992 -0.929155
v 0.825083 6.7859 36.5625
vn 0.022182 0.182436 0.982967
v 0.733398 4.79824 25.7875
vn 0.0279492 0.182857 0.982742
v 0.881408 3.64556 19.8565
vn 0.0436176 0.180405 0.982625
v 0.475 -0.129188 -1.57469
vn 0.287908 -0.0783037 -0.954451
v 0.49342 -0.00526099 -0.910905
vn 0.476287 -0.00507831 -0.879275
v 0.624036 0.313213 1.04587
vn 0.496241 0.249071 0.83169
v 0.622994 0.308774 0.996296
vn 0.51278 0.254149 0.82004
v 0.537793 -0.247994 -2.11623
vn 0.244726 -0.112851 -0.963002
v 0.916658 1.29838 6.73969
vn 0.132378 0.187504 0.973303
v 1.09994 1.98338 11.0593
vn 0.0974302 0.175684 0.979613
v -0.00376239 -0.511446 -3.46215
vn -0.00107505 -0.146139 -0.989264
v 0.0448148 -0.512363 -3.02321
vn 0.0146136 -0.167076 -0.985836
v 0.011236 -0.507996 -3.43409
vn 0.00323666 -0.146334 -0.98923
v 0.0592943 -0.509205 -2.93395
vn 0.0199081 -0.170966 -0.985076
v 0.0632627 -0.506756 -2.95433
vn 0.0211006 -0.169023 -0.985386
v 0.063247 -0.504623 -2.99419
vn 0.020825 -0.166154 -0.98588
v 0.0310377 -0.501436 -3.35939
vn 0.00913747 -0.147622 -0.989002
v 0.120096 -0.492555 -2.68255
vn 0.0439905 -0.180421 -0.982605
v 0.06884 -0.490816 -3.25787
vn 0.02089 -0.148942 -0.988625
v 0.0882716 -0.484977 -3.24531
vn 0.0268913 -0.147745 -0.98866
v 0.13511 -0.480679 -2.79037
vn 0.0476632 -0.16957 -0.984365
v 0.133931 -0.481085 -2.7832
vn 0.0473646 -0.170136 -0.984282
v 0.0923329 -0.482821 -3.27038
vn 0.0279194 -0.145994 -0.988891
v 0.153438 -0.475903 -2.68328
vn 0.0562152 -0.174357 -0.983077
v 0.0921689 -0.482828 -3.26434
vn 0.0279203 -0.146261 -0.988852
v 0.175708 -0.468958 -2.58119
vn 0.0668264 -0.178357 -0.981694
v 0.177265 -0.465733 -2.68074
vn 0.0650116 -0.170807 -0.983157
f 7//7 20//20 50//50
f 50//50 23//23 7//7
f 50//50 46//46 23//23
f 46//46 48//48 23//23
f 48//48 18//18 23//23
f 48//48 42//42 18//18
f 48//48 66//66 42//42
f 66//66 37//37 42//42
f 37//37 10//10 42//42
f 37//37 25//25 10//10
f 37//37 49//49 25//25
f 49//49 54//54 25//25
f 54//54 16//16 25//25
f 54//54 55//55 16//16
f 55//55 40//40 16//16
f 55//55 73//73 40//40
f 73//73 51//51 40//40
f 51//51 34//34 40//40
f 51//51 62//62 34//34
f 62//62 45//45 34//34
f 62//62 74//74 45//45
f 74//74 71//71 45//45
f 71//71 67//67 45//45
f 67//67 63//63 45//45
f 67//67 75//75 63//63
f 75//75 63//63 79//79
f 79//79 93//93 75//75
f 79//79 93//93 85//85
f 93//93 110//110 85//85
f 110//110 100//100 85//85
f 100//100 103//103 85//85
f 103//103 91//91 85//85
f 103//103 107//107 91//91
f 107//107 133//133 91//91
f 107//107 186//186 133//133
f 186//186 184//184 133//133
f 184//184 204//204 133//133
f 184//184 200//200 204//204
f 200//200 267//267 204//204
f 267//267 271//271 204//204
f 271//271 185//185 204//204
f 271//271 217//217 185//185
f 217//217 192//192 185//185
f 192//192 179//179 185//185
f 179//179 133//133 185//185
f 179//179 141//141 133//133
f 192//192 217//217 179//179
f 217//217 199//199 179//179
f 199//199 139//139 179//179
f 199//199 193//193 139//139
f 193//193 198//198 139//139
f 198//198 187//187 139//139
f 187//187 175//175 139//139
f 187//187 208//208 175//175
f 187//187 246//246 208//208
f 187//187 224//224 246//246
f 224//224 281//281 246//246
f 281//281 252//252 246//246
f 281//281 312//312 252//252
f 312//312 251//251 252//252
f 251//251 232//232 252//252
f 251//251 241//241 232//232
f 251//251 257//257 241//241
f 251//251 312//312 257//257
f 312//312 310//310 257//257
f 310//310 336//336 257//257
f 336//336 291//291 257//257
f 291//291 290//290 257//257
f 291//291 350//350 290//290
f 310//310 348//348 336//336
f 310//310 312//312 348//348
f 312//312 353//353 348//348
f 312//312 281//281 353//353
f 281//281 345//345 353//353
f 345//345 353//353 812//812
f 812//812 806//806 345//345
f 806//806 339//339 345//345
f 806//806 331//331 339//339
f 331//331 311//311 339//339
f 311//311 353//353 339//339
f 311//311 333//333 353//353
f 311//311 286//286 333//333
f 286//286 327//327 333//333
f 327//327 351//351 333//333
f 351//351 812//812 333//333
f 351//351 811//811 812//812
f 811//811 818//818 812//812
f 818//818 821//821 812//812
f 818//818 823//823 821//821
f 811//811 819//819 818//818
f 351//351 346//346 811//811
f 346//346 352//352 811//811
f 346//346 340//340 352//352
f 346//346 351//351 340//340
f 351//351 341//341 340//340
f 341//341 295//295 340//340
f 341//341 267//267 295//295
f 267//267 200//200 295//295
f 200//200 211//211 295//295
f 211//211 263//263 295//295
f 263//263 326//326 295//295
f 263//263 325//325 326//326
f 325//325 340//340 326//326
f 263//263 294//294 325//325
f 294//294 352//352 325//325
f 294//294 270//270 352//352
f 270//270 273//273 352//352
f 270//270 258//258 273//273
f 258//258 256//256 273//273
f 256//256 248//248 273//273
f 248//248 305//305 273//273
f 305//305 803//803 273//273
f 248//248 214//214 305//305
f 214//214 299//299 305//305
f 299//299 324//324 305//305
f 299//299 288//288 324//324
f 288//288 285//285 324//324
f 285//285 329//329 324//324
f 285//285 279//279 329//329
f 279//279 266//266 329//329
f 266//266 323//323 329//329
f 323//323 805//805 329//329
f 323//323 808//808 805//805
f 323//323 309//309 808//808
f 323//323 243//243 309//309
f 243//243 262//262 309//309
f 262//262 284//284 309//309
f 284//284 804//804 309//309
f 804//804 815//815 309//309
f 804//804 278//278 815//815
f 278//278 275//275 815//815
f 275//275 349//349 815//815
f 349//349 816//816 815//815
f 816//816 826//826 815//815
f 826//826 828//828 815//815
f 826//826 827//827 828//828
f 827//827 830//830 828//828
f 827//827 826//826 830//830
f 826//826 816//816 830//830
f 275//275 287//287 349//349
f 287//287 813//813 349//349
f 813//813 809//809 349//349
f 809//809 814//814 349//349
f 814//814 817//817 349//349
f 809//809 800//800 814//814
f 809//809 206//206 800//800
f 206//206 104//104 800//800
f 206//206 132//132 104//104
f 132//132 97//97 104//104
f 97//97 89//89 104//104
f 89//89 66//66 104//104
f 66//66 61//61 104//104
f 66//66 48//48 61//61
f 48//48 77//77 61//61
f 48//48 46//46 77//77
f 46//46 106//106 77//77
f 46//46 116//116 106//106
f 116//116 167//167 106//106
f 116//116 810//810 167//167
f 810//810 228//228 167//167
f 228//228 233//233 167//167
f 233//233 800//800 167//167
f 228//228 320//320 233//233
f 320//320 334//334 233//233
f 320//320 817//817 334//334
f 228//228 315//315 320//320
f 228//228 810//810 315//315
f 46//46 83//83 116//116
f 83//83 127//127 116//116
f 46//46 50//50 83//83
f 89//89 37//37 66//66
f 89//89 69//69 37//37
f 69//69 49//49 37//37
f 69//69 68//68 49//49
f 68//68 65//65 49//49
f 65//65 54//54 49//49
f 65//65 117//117 54//54
f 117//117 113//113 54//54
f 113//113 55//55 54//54
f 113//113 73//73 55//55
f 113//113 125//125 73//73
f 113//113 117//117 125//125
f 117//117 173//173 125//125
f 173//173 197//197 125//125
f 197//197 166//166 125//125
f 197//197 215//215 166//166
f 215//215 216//216 166//166
f 216//216 177//177 166//166
f 216//216 229//229 177//177
f 229//229 145//145 177//177
f 145//145 143//143 177//177
f 145//145 130//130 143//143
f 145//145 138//138 130//130
f 145//145 172//172 138//138
f 172//172 153//153 138//138
f 153//153 154//154 138//138
f 154//154 105//105 138//138
f 154//154 88//88 105//105
f 88//88 94//94 105//105
f 94//94 129//129 105//105
f 88//88 74//74 94//94
f 74//74 76//76 94//94
f 76//76 94//94 87//87
f 87//87 58//58 76//76
f 74//74 62//62 76//76
f 88//88 74//74 82//82
f 82//82 88//88 96//96
f 88//88 99//99 96//96
f 99//99 75//75 96//96
f 88//88 154//154 99//99
f 154//154 170//170 99//99
f 170//170 164//164 99//99
f 164//164 121//121 99//99
f 154//154 214//214 170//170
f 214//214 247//247 170//170
f 247//247 190//190 170//170
f 247//247 256//256 190//190
f 154//154 172//172 214//214
f 172//172 229//229 214//214
f 229//229 299//299 214//214
f 229//229 288//288 299//299
f 229//229 277//277 288//288
f 277//277 285//285 288//288
f 277//277 216//216 285//285
f 216//216 279//279 285//285
f 216//216 215//215 279//279
f 215//215 266//266 279//279
f 215//215 243//243 266//266
f 243//243 323//323 266//266
f 215//215 197//197 243//243
f 197//197 173//173 243//243
f 173//173 203//203 243//243
f 203//203 262//262 243//243
f 203//203 221//221 262//262
f 221//221 276//276 262//262
f 276//276 284//284 262//262
f 276//276 804//804 284//284
f 276//276 249//249 804//804
f 249//249 278//278 804//804
f 249//249 275//275 278//278
f 249//249 799//799 275//275
f 799//799 236//236 275//275
f 236//236 287//287 275//275
f 236//236 809//809 287//287
f 809//809 813//813 287//287
f 249//249 796//796 799//799
f 249//249 221//221 796//796
f 221//221 194//194 796//796
f 194//194 173//173 796//796
f 173//173 124//124 796//796
f 124//124 65//65 796//796
f 65//65 68//68 796//796
f 124//124 117//117 65//65
f 124//124 173//173 117//117
f 194//194 203//203 173//173
f 194//194 221//221 203//203
f 249//249 276//276 221//221
f 277//277 229//229 216//216
f 172//172 145//145 229//229
f 154//154 153//153 172//172
f 96//96 78//78 82//82
f 78//78 75//75 82//82
f 78//78 75//75 64//64
f 75//75 64//64 67//67
f 96//96 93//93 78//78
f 96//96 121//121 93//93
f 121//121 110//110 93//93
f 69//69 122//122 68//68
f 69//69 89//89 122//122
f 89//89 97//97 122//122
f 97//97 132//132 122//122
f 206//206 236//236 132//132
f 236//236 254//254 132//132
f 236//236 206//206 254//254
f 206//206 809//809 254//254
f 258//258 219//219 256//256
f 258//258 196//196 219//219
f 196//196 168//168 219//219
f 168//168 190//190 219//219
f 196//196 176//176 168//168
f 176//176 140//140 168//168
f 140//140 123//123 168//168
f 176//176 155//155 140//140
f 155//155 798//798 140//140
f 798//798 795//795 140//140
f 795//795 126//126 140//140
f 176//176 162//162 155//155
f 162//162 110//110 155//155
f 110//110 123//123 155//155
f 162//162 152//152 110//110
f 152//152 115//115 110//110
f 115//115 100//100 110//110
f 115//115 128//128 100//100
f 128//128 103//103 100//100
f 128//128 107//107 103//103
f 128//128 101//101 107//107
f 115//115 152//152 128//128
f 152//152 171//171 128//128
f 152//152 201//201 171//171
f 201//201 211//211 171//171
f 211//211 200//200 171//171
f 200//200 186//186 171//171
f 186//186 108//108 171//171
f 200//200 184//184 186//186
f 201//201 263//263 211//211
f 201//201 265//265 263//263
f 265//265 294//294 263//263
f 265//265 258//258 294//294
f 258//258 270//270 294//294
f 265//265 176//176 258//258
f 265//265 201//201 176//176
f 201//201 162//162 176//176
f 201//201 152//152 162//162
f 341//341 316//316 267//267
f 316//316 271//271 267//267
f 316//316 264//264 271//271
f 264//264 217//217 271//271
f 316//316 286//286 264//264
f 316//316 327//327 286//286
f 316//316 351//351 327//327
f 316//316 341//341 351//351
f 311//311 280//280 286//286
f 280//280 199//199 286//286
f 199//199 217//217 286//286
f 280//280 193//193 199//199
f 311//311 281//281 280//280
f 281//281 224//224 280//280
f 311//311 331//331 281//281
f 331//331 345//345 281//281
f 806//806 300//300 331//331
f 187//187 198//198 224//224
f 198//198 193//193 224//224
f 51//51 73//73 62//62
f 73//73 87//87 62//62
f 12//12 21//21 30//30
f 33//33 39//39 43//43
f 72//72 81//81 95//95
f 102//102 131//131 148//148
f 114//114 137//137 169//169
f 118//118 161//161 174//174
f 161//161 223//223 174//174
f 223//223 318//318 174//174
f 318//318 195//195 174//174
f 195//195 150//150 174//174
f 195//195 202//202 150//150
f 202//202 148//148 150//150
f 146//146 218//218 147//147
f 146//146 178//178 218//218
f 146//146 149//149 178//178
f 157//157 289//289 158//158
f 158//158 95//95 157//157
f 157//157 296//296 289//289
f 296//296 321//321 289//289
f 321//321 343//343 289//289
f 343//343 332//332 289//289
f 321//321 319//319 343//343
f 321//321 296//296 319//319
f 296//296 242//242 319//319
f 296//296 157//157 242//242
f 209//209 231//231 237//237
f 231//231 308//308 237//237
f 231//231 292//292 308//308
f 292//292 342//342 308//308
f 292//292 301//301 342//342
f 301//301 332//332 342//342
f 301//301 253//253 332//332
f 301//301 292//292 253//253
f 292//292 231//231 253//253
f 227//227 245//245 240//240
f 240//240 227//227 242//242
f 244//244 261//261 304//304
f 261//261 302//302 304//304
f 302//302 337//337 304//304
f 337//337 245//245 304//304
f 354//354 364//364 361//361
f 354//354 358//358 364//364
f 358//358 361//361 364//364
f 358//358 363//363 361//361
f 363//363 355//355 361//361
f 355//355 354//354 361//361
f 355//355 365//365 354//354
f 365//365 357//357 354//354
f 357//357 360//360 354//354
f 360//360 358//358 354//354
f 360//360 356//356 358//358
f 360//360 357//357 356//356
f 357//357 366//366 356//356
f 366//366 375//375 356//356
f 366//366 367//367 375//375
f 367//367 369//369 375//375
f 369//369 388//388 375//375
f 369//369 387//387 388//388
f 387//387 376//376 388//388
f 387//387 372//372 376//376
f 372//372 403//403 376//376
f 403//403 399//399 376//376
f 372//372 437//437 403//403
f 372//372 430//430 437//437
f 430//430 441//441 437//437
f 441//441 489//489 437//437
f 441//441 460//460 489//489
f 460//460 485//485 489//489
f 460//460 478//478 485//485
f 478//478 476//476 485//485
f 476//476 488//488 485//485
f 488//488 497//497 485//485
f 488//488 509//509 497//497
f 488//488 509//509 544//544
f 509//509 541//541 544//544
f 541//541 549//549 544//544
f 541//541 555//555 549//549
f 555//555 581//581 549//549
f 555//555 560//560 581//581
f 560//560 576//576 581//581
f 576//576 564//564 581//581
f 564//564 568//568 581//581
f 568//568 618//618 581//581
f 618//618 607//607 581//581
f 618//618 635//635 607//607
f 635//635 643//643 607//607
f 635//635 650//650 643//643
f 635//635 628//628 650//650
f 628//628 654//654 650//650
f 654//654 673//673 650//650
f 673//673 693//693 650//650
f 673//673 670//670 693//693
f 670//670 671//671 693//693
f 671//671 681//681 693//693
f 681//681 689//689 693//693
f 689//689 695//695 693//693
f 689//689 694//694 695//695
f 694//694 712//712 695//695
f 694//694 706//706 712//712
f 706//706 697//697 712//712
f 697//697 716//716 712//712
f 697//697 702//702 716//716
f 702//702 731//731 716//716
f 731//731 724//724 716//716
f 702//702 718//718 731//731
f 702//702 715//715 718//718
f 715//715 709//709 718//718
f 709//709 720//720 718//718
f 720//720 717//717 718//718
f 717//717 722//722 718//718
f 722//722 726//726 718//718
f 726//726 724//724 718//718
f 726//726 728//728 724//724
f 728//728 742//742 724//724
f 728//728 736//736 742//742
f 736//736 743//743 742//742
f 743//743 748//748 742//742
f 748//748 765//765 742//742
f 748//748 764//764 765//765
f 764//764 774//774 765//765
f 764//764 766//766 774//774
f 764//764 768//768 766//766
f 768//768 775//775 766//766
f 768//768 777//777 775//775
f 777//777 771//771 775//775
f 771//771 784//784 775//775
f 771//771 778//778 784//784
f 778//778 779//779 784//784
f 779//779 782//782 784//784
f 782//782 791//791 784//784
f 782//782 794//794 791//791
f 782//782 788//788 794//794
f 788//788 790//790 794//794
f 790//790 793//793 794//794
f 790//790 792//792 793//793
f 790//790 786//786 792//792
f 790//790 788//788 786//786
f 788//788 780//780 786//786
f 788//788 782//782 780//780
f 782//782 781//781 780//780
f 781//781 767//767 780//780
f 781//781 770//770 767//767
f 770//770 773//773 767//767
f 773//773 772//772 767//767
f 773//773 753//753 772//772
f 753//753 750//750 772//772
f 753//753 744//744 750//750
f 744//744 746//746 750//750
f 744//744 741//741 746//746
f 741//741 755//755 746//746
f 741//741 758//758 755//755
f 758//758 761//761 755//755
f 761//761 738//738 755//755
f 761//761 739//739 738//738
f 739//739 729//729 738//738
f 729//729 733//733 738//738
f 729//729 732//732 733//733
f 732//732 721//721 733//733
f 732//732 723//723 721//721
f 723//723 708//708 721//721
f 723//723 699//699 708//708
f 699//699 704//704 708//708
f 704//704 686//686 708//708
f 704//704 691//691 686//686
f 691//691 683//683 686//686
f 683//683 682//682 686//686
f 682//682 674//674 686//686
f 674//674 678//678 686//686
f 674//674 653//653 678//678
f 653//653 663//663 678//678
f 663//663 661//661 678//678
f 663//663 653//653 661//661
f 653//653 642//642 661//661
f 642//642 647//647 661//661
f 642//642 646//646 647//647
f 646//646 636//636 647//647
f 636//636 639//639 647//647
f 639//639 613//613 647//647
f 639//639 626//626 613//613
f 626//626 625//625 613//613
f 625//625 632//632 613//613
f 625//625 609//609 632//632
f 625//625 614//614 609//609
f 614//614 606//606 609//609
f 606//606 582//582 609//609
f 582//582 566//566 609//609
f 582//582 552//552 566//566
f 582//582 593//593 552//552
f 593//593 591//591 552//552
f 591//591 585//585 552//552
f 585//585 542//542 552//552
f 542//542 556//556 552//552
f 556//556 579//579 552//552
f 579//579 589//589 552//552
f 579//579 566//566 589//589
f 556//556 542//542 579//579
f 542//542 540//540 579//579
f 540//540 546//546 579//579
f 546//546 550//550 579//579
f 546//546 537//537 550//550
f 537//537 553//553 550//550
f 537//537 525//525 553//553
f 525//525 518//518 553//553
f 525//525 507//507 518//518
f 507//507 516//516 518//518
f 507//507 519//519 516//516
f 519//519 480//480 516//516
f 519//519 506//506 480//480
f 506//506 482//482 480//480
f 482//482 465//465 480//480
f 465//465 467//467 480//480
f 467//467 469//469 480//480
f 465//465 495//495 467//467
f 495//495 449//449 467//467
f 495//495 484//484 449//449
f 484//484 440//440 449//449
f 440//440 469//469 449//449
f 440//440 468//468 469//469
f 440//440 458//458 468//468
f 458//458 401//401 468//468
f 401//401 457//457 468//468
f 401//401 428//428 457//457
f 428//428 415//415 457//457
f 428//428 394//394 415//415
f 394//394 402//402 415//415
f 394//394 445//445 402//402
f 445//445 381//381 402//402
f 381//381 370//370 402//402
f 370//370 442//442 402//402
f 370//370 415//415 442//442
f 370//370 379//379 415//415
f 370//370 368//368 379//379
f 368//368 363//363 379//379
f 368//368 355//355 363//363
f 368//368 370//370 355//355
f 370//370 371//371 355//355
f 371//371 377//377 355//355
f 377//377 380//380 355//355
f 380//380 357//357 355//355
f 357//357 365//365 355//355
f 380//380 377//377 357//357
f 377//377 373//373 357//357
f 373//373 385//385 357//357
f 385//385 389//389 357//357
f 389//389 367//367 357//357
f 367//367 366//366 357//357
f 389//389 378//378 367//367
f 378//378 369//369 367//367
f 378//378 393//393 369//369
f 393//393 387//387 369//369
f 393//393 384//384 387//387
f 384//384 392//392 387//387
f 392//392 372//372 387//387
f 392//392 430//430 372//372
f 392//392 410//410 430//430
f 410//410 425//425 430//430
f 425//425 441//441 430//430
f 425//425 460//460 441//441
f 425//425 426//426 460//460
f 426//426 443//443 460//460
f 443//443 479//479 460//460
f 443//443 439//439 479//479
f 439//439 454//454 479//479
f 454//454 481//481 479//479
f 481//481 477//477 479//479
f 477//477 485//485 479//479
f 481//481 490//490 477//477
f 490//490 483//483 477//477
f 483//483 504//504 477//477
f 504//504 488//488 477//477
f 483//483 451//451 504//504
f 451//451 491//491 504//504
f 491//491 486//486 504//504
f 486//486 520//520 504//504
f 520//520 509//509 504//504
f 520//520 533//533 509//509
f 533//533 535//535 509//509
f 535//535 541//541 509//509
f 535//535 538//538 541//541
f 538//538 555//555 541//541
f 538//538 572//572 555//555
f 572//572 560//560 555//555
f 572//572 569//569 560//560
f 569//569 577//577 560//560
f 569//569 584//584 577//577
f 584//584 564//564 577//577
f 584//584 568//568 564//564
f 584//584 586//586 568//568
f 586//586 599//599 568//568
f 599//599 618//618 568//568
f 599//599 621//621 618//618
f 621//621 624//624 618//618
f 624//624 630//630 618//618
f 630//630 635//635 618//618
f 630//630 628//628 635//635
f 630//630 616//616 628//628
f 616//616 620//620 628//628
f 620//620 623//623 628//628
f 623//623 654//654 628//628
f 623//623 656//656 654//654
f 656//656 673//673 654//654
f 656//656 648//648 673//673
f 648//648 670//670 673//673
f 648//648 672//672 670//670
f 672//672 671//671 670//670
f 672//672 676//676 671//671
f 676//676 681//681 671//671
f 676//676 688//688 681//681
f 688//688 694//694 681//681
f 694//694 689//689 681//681
f 676//676 692//692 688//688
f 692//692 697//697 688//688
f 697//697 706//706 688//688
f 692//692 702//702 697//697
f 692//692 715//715 702//702
f 692//692 714//714 715//715
f 714//714 709//709 715//715
f 714//714 713//713 709//709
f 713//713 720//720 709//709
f 713//713 711//711 720//720
f 711//711 717//717 720//720
f 711//711 699//699 717//717
f 699//699 725//725 717//717
f 725//725 737//737 717//717
f 737//737 735//735 717//717
f 735//735 736//736 717//717
f 736//736 722//722 717//717
f 736//736 728//728 722//722
f 728//728 726//726 722//722
f 735//735 743//743 736//736
f 735//735 734//734 743//743
f 734//734 752//752 743//743
f 752//752 748//748 743//743
f 752//752 740//740 748//748
f 740//740 764//764 748//748
f 740//740 751//751 764//764
f 751//751 763//763 764//764
f 763//763 768//768 764//764
f 763//763 747//747 768//768
f 747//747 777//777 768//768
f 747//747 762//762 777//777
f 747//747 744//744 762//762
f 744//744 756//756 762//762
f 756//756 773//773 762//762
f 773//773 778//778 762//762
f 778//778 771//771 762//762
f 773//773 770//770 778//778
f 770//770 785//785 778//778
f 785//785 779//779 778//778
f 756//756 753//753 773//773
f 756//756 744//744 753//753
f 763//763 761//761 747//747
f 761//761 758//758 747//747
f 763//763 751//751 761//761
f 751//751 740//740 761//761
f 740//740 739//739 761//761
f 740//740 730//730 739//739
f 730//730 729//729 739//739
f 730//730 732//732 729//729
f 730//730 725//725 732//732
f 725//725 723//723 732//732
f 725//725 699//699 723//723
f 730//730 727//727 725//725
f 727//727 737//737 725//725
f 727//727 734//734 737//737
f 734//734 735//735 737//737
f 727//727 730//730 734//734
f 730//730 752//752 734//734
f 730//730 740//740 752//752
f 711//711 704//704 699//699
f 711//711 691//691 704//704
f 711//711 713//713 691//691
f 713//713 714//714 691//691
f 714//714 683//683 691//691
f 714//714 669//669 683//683
f 669//669 682//682 683//683
f 669//669 674//674 682//682
f 669//669 653//653 674//674
f 669//669 680//680 653//653
f 680//680 649//649 653//653
f 649//649 646//646 653//653
f 646//646 642//642 653//653
f 649//649 655//655 646//646
f 655//655 636//636 646//646
f 655//655 657//657 636//636
f 657//657 666//666 636//636
f 666//666 652//652 636//636
f 652//652 637//637 636//636
f 637//637 626//626 636//636
f 626//626 639//639 636//636
f 637//637 625//625 626//626
f 637//637 645//645 625//625
f 645//645 614//614 625//625
f 645//645 660//660 614//614
f 660//660 629//629 614//614
f 629//629 605//605 614//614
f 605//605 606//606 614//614
f 605//605 582//582 606//606
f 605//605 610//610 582//582
f 610//610 593//593 582//582
f 610//610 612//612 593//593
f 612//612 601//601 593//593
f 601//601 585//585 593//593
f 585//585 591//591 593//593
f 601//601 573//573 585//585
f 573//573 590//590 585//585
f 590//590 539//539 585//585
f 539//539 542//542 585//585
f 539//539 540//540 542//542
f 539//539 546//546 540//540
f 539//539 537//537 546//546
f 539//539 511//511 537//537
f 511//511 525//525 537//537
f 511//511 507//507 525//525
f 511//511 514//514 507//507
f 514//514 519//519 507//507
f 514//514 517//517 519//519
f 517//517 506//506 519//519
f 517//517 526//526 506//506
f 526//526 530//530 506//506
f 530//530 482//482 506//506
f 530//530 495//495 482//482
f 495//495 465//465 482//482
f 530//530 523//523 495//495
f 523//523 512//512 495//495
f 512//512 484//484 495//495
f 512//512 510//510 484//484
f 510//510 487//487 484//484
f 487//487 455//455 484//484
f 455//455 464//464 484//484
f 464//464 458//458 484//484
f 458//458 440//440 484//484
f 464//464 401//401 458//458
f 464//464 438//438 401//401
f 438//438 398//398 401//401
f 398//398 394//394 401//401
f 394//394 428//428 401//401
f 398//398 438//438 394//394
f 438//438 433//433 394//394
f 433//433 445//445 394//394
f 433//433 438//438 445//445
f 438//438 447//447 445//445
f 447//447 424//424 445//445
f 424//424 381//381 445//445
f 424//424 420//420 381//381
f 420//420 371//371 381//381
f 371//371 370//370 381//381
f 420//420 417//417 371//371
f 417//417 408//408 371//371
f 408//408 391//391 371//371
f 391//391 377//377 371//371
f 391//391 373//373 377//377
f 391//391 385//385 373//373
f 391//391 407//407 385//385
f 407//407 384//384 385//385
f 384//384 389//389 385//385
f 384//384 378//378 389//389
f 384//384 393//393 378//378
f 407//407 419//419 384//384
f 407//407 382//382 419//419
f 407//407 391//391 382//382
f 391//391 411//411 382//382
f 411//411 432//432 382//382
f 432//432 439//439 382//382
f 439//439 426//426 382//382
f 426//426 410//410 382//382
f 410//410 392//392 382//382
f 392//392 384//384 382//382
f 426//426 425//425 410//410
f 439//439 444//444 426//426
f 439//439 478//478 444//444
f 478//478 460//460 444//444
f 439//439 454//454 478//478
f 454//454 481//481 478//478
f 411//411 417//417 432//432
f 411//411 427//427 417//417
f 427//427 408//408 417//417
f 427//427 391//391 408//408
f 427//427 411//411 391//391
f 420//420 448//448 417//417
f 448//448 483//483 417//417
f 448//448 451//451 483//483
f 448//448 420//420 451//451
f 420//420 424//424 451//451
f 424//424 446//446 451//451
f 446//446 472//472 451//451
f 472//472 491//491 451//451
f 472//472 486//486 491//491
f 472//472 496//496 486//486
f 496//496 533//533 486//486
f 533//533 527//527 486//486
f 527//527 520//520 486//486
f 527//527 533//533 520//520
f 496//496 510//510 533//533
f 510//510 512//512 533//533
f 512//512 521//521 533//533
f 521//521 538//538 533//533
f 538//538 535//535 533//533
f 521//521 528//528 538//538
f 528//528 569//569 538//538
f 569//569 572//572 538//538
f 528//528 570//570 569//569
f 570//570 584//584 569//569
f 570//570 529//529 584//584
f 529//529 586//586 584//584
f 529//529 578//578 586//586
f 578//578 574//574 586//586
f 574//574 592//592 586//586
f 592//592 599//599 586//586
f 592//592 621//621 599//599
f 592//592 624//624 621//621
f 592//592 604//604 624//624
f 604//604 615//615 624//624
f 615//615 630//630 624//624
f 615//615 616//616 630//630
f 615//615 620//620 616//616
f 615//615 604//604 620//620
f 604//604 619//619 620//620
f 619//619 601//601 620//620
f 601//601 612//612 620//620
f 612//612 633//633 620//620
f 633//633 623//623 620//620
f 633//633 629//629 623//623
f 629//629 656//656 623//623
f 629//629 648//648 656//656
f 629//629 660//660 648//648
f 660//660 651//651 648//648
f 651//651 672//672 648//648
f 651//651 666//666 672//672
f 666//666 676//676 672//672
f 666//666 657//657 676//676
f 657//657 687//687 676//676
f 687//687 677//677 676//676
f 677//677 692//692 676//676
f 677//677 680//680 692//692
f 680//680 700//700 692//692
f 680//680 669//669 700//700
f 677//677 649//649 680//680
f 677//677 655//655 649//649
f 677//677 687//687 655//655
f 687//687 657//657 655//655
f 660//660 645//645 651//651
f 645//645 637//637 651//651
f 633//633 605//605 629//629
f 633//633 612//612 605//605
f 612//612 610//610 605//605
f 619//619 573//573 601//601
f 619//619 604//604 573//573
f 604//604 592//592 573//573
f 592//592 574//574 573//573
f 574//574 590//590 573//573
f 574//574 567//567 590//590
f 567//567 539//539 590//590
f 567//567 545//545 539//539
f 545//545 511//511 539//539
f 545//545 514//514 511//511
f 545//545 529//529 514//514
f 529//529 526//526 514//514
f 526//526 517//517 514//514
f 529//529 528//528 526//526
f 528//528 523//523 526//526
f 523//523 534//534 526//526
f 534//534 531//531 526//526
f 534//534 523//523 531//531
f 528//528 521//521 523//523
f 521//521 512//512 523//523
f 529//529 571//571 528//528
f 545//545 567//567 529//529
f 567//567 578//578 529//529
f 567//567 574//574 578//578
f 496//496 505//505 510//510
f 505//505 487//487 510//510
f 505//505 472//472 487//487
f 472//472 455//455 487//487
f 472//472 447//447 455//455
f 447//447 438//438 455//455
f 438//438 464//464 455//455
f 505//505 496//496 472//472
f 714//714 692//692 669//669
f 490//490 481//481 483//483
f 741//741 744//744 758//758
f 781//781 782//782 770//770
f 782//782 779//779 770//770
f 641//641 658//658 665//665
f 684//684 690//690 698//698
f 822//822 829//829 824//824
f 829//829 831//831 824//824
f 829//829 836//836 831//831
f 829//829 837//837 836//836
f 837//837 839//839 836//836
f 839//839 840//840 836//836
f 839//839 843//843 840//840
f 839//839 842//842 843//843
f 842//842 845//845 843//843
f 837//837 838//838 839//839
f 837//837 832//832 838//838
f 837//837 829//829 832//832
f 829//829 823//823 832//832
f 825//825 835//835 833//833
f 863//863 866//866 890//890
f 865//865 875//875 876//876
f 875//875 876//876 889//889
f 876//876 889//889 906//906
f 880//880 898//898 910//910
f 880//880 882//882 898//898
f 896//896 903//903 917//917
f 947//947 951//951 953//953
f 977//977 981//981 980//980
f 982//982 988//988 984//984
f 988//988 990//990 984//984
f 990//990 985//985 984//984
f 983//983 987//987 989//989
f 989//989 991//991 983//983
f 989//989 992//992 991//991
f 989//989 987//987 992//992
f 7//7 6//6 20//20
f 20//20 83//83 50//50
f 18//18 14//14 23//23
f 42//42 10//10 18//18
f 40//40 34//34 16//16
f 141//141 139//139 133//133
f 309//309 815//815 808//808
f 815//815 825//825 808//808
f 815//815 828//828 825//825
f 349//349 817//817 816//816
f 104//104 77//77 800//800
f 104//104 61//61 77//77
f 83//83 231//231 127//127
f 125//125 165//165 73//73
f 143//143 165//165 177//177
f 170//170 190//190 164//164
f 190//190 248//248 219//219
f 95//95 56//56 72//72
f 56//56 35//35 72//72
f 35//35 81//81 72//72
f 56//56 11//11 35//35
f 11//11 26//26 35//35
f 56//56 24//24 11//11
f 102//102 131//131 90//90
f 90//90 102//102 98//98
f 195//195 318//318 202//202
f 318//318 317//317 202//202
f 317//317 322//322 202//202
f 178//178 335//335 218//218
f 178//178 149//149 335//335
f 146//146 98//98 149//149
f 95//95 242//242 157//157
f 289//289 332//332 158//158
f 308//308 237//237 810//810
f 227//227 337//337 242//242
f 337//337 240//240 242//242
f 550//550 553//553 579//579
f 518//518 516//516 553//553
f 468//468 457//457 469//469
f 457//457 515//515 469//469
f 835//835 844//844 833//833
f 863//863 847//847 866//866
f 847//847 856//856 866//866
f 876//876 871//871 865//865
f 871//871 906//906 865//865
f 871//871 906//906 913//913
f 906//906 913//913 919//919
f 919//919 906//906 3//3
f 906//906 876//876 3//3
f 882//882 890//890 898//898
f 890//890 924//924 898//898
f 924//924 926//926 898//898
f 926//926 910//910 898//898
f 241//241 257//257 232//232
f 329//329 833//833 324//324
f 329//329 825//825 833//833
f 816//816 817//817 830//830
f 83//83 92//92 231//231
f 92//92 253//253 231//231
f 92//92 158//158 253//253
f 158//158 332//332 253//253
f 92//92 95//95 158//158
f 83//83 59//59 92//92
f 85//85 64//64 79//79
f 85//85 86//86 64//64
f 73//73 130//130 87//87
f 73//73 142//142 130//130
f 56//56 59//59 24//24
f 56//56 95//95 59//59
f 81//81 227//227 95//95
f 98//98 38//38 90//90
f 169//169 234//234 114//114
f 261//261 218//218 302//302
f 388//388 416//416 375//375
f 791//791 766//766 784//784
f 755//755 738//738 746//746
f 838//838 844//844 839//839
f 844//844 841//841 839//839
f 844//844 845//845 841//841
f 913//913 920//920 871//871
f 926//926 910//910 4//4
f 174//174 150//150 118//118
f 150//150 131//131 118//118
f 133//133 139//139 91//91
f 139//139 141//141 91//91
f 833//833 803//803 324//324
f 59//59 6//6 24//24
f 102//102 149//149 98//98
f 148//148 322//322 102//102
f 234//234 183//183 114//114
f 183//183 80//80 114//114
f 80//80 84//84 114//114
f 218//218 261//261 147//147
f 686//686 678//678 708//708
f 379//379 363//363 415//415
f 842//842 839//839 845//845
f 856//856 890//890 866//866
f 856//856 920//920 890//890
f 947//947 935//935 951//951
f 935//935 949//949 951//951
f 980//980 979//979 977//977
f 987//987 986//986 992//992
f 882//882 863//863 890//890
f 166//166 142//142 125//125
f 833//833 844//844 803//803
f 844//844 838//838 803//803
f 838//838 834//834 803//803
f 800//800 320//320 814//814
f 800//800 810//810 320//320
f 102//102 322//322 149//149
f 322//322 335//335 149//149
f 98//98 31//31 38//38
f 98//98 146//146 31//31
f 146//146 147//147 31//31
f 80//80 21//21 84//84
f 21//21 32//32 84//84
f 183//183 120//120 80//80
f 120//120 30//30 80//80
f 767//767 772//772 780//780
f 823//823 352//352 832//832
f 4//4 22//22 926//926
f 4//4 29//29 22//22
f 29//29 30//30 22//22
f 890//890 12//12 924//924
f 12//12 29//29 924//924
f 903//903 9//9 917//917
f 903//903 5//5 9//9
f 5//5 36//36 9//9
f 36//36 41//41 9//9
f 935//935 948//948 949//949
f 948//948 962//962 949//949
f 948//948 945//945 962//962
f 945//945 950//950 962//962
f 950//950 956//956 962//962
f 956//956 969//969 962//962
f 956//956 952//952 969//969
f 956//956 950//950 952//952
f 985//985 977//977 984//984
f 983//983 910//910 987//987
